<svg xmlns="http://www.w3.org/2000/svg" width="55" height="55" viewBox="0 0 55 55"><g><g><path fill="#3652e4" d="M54.977 46.124c0 1.72.057 3.308-.014 4.89-.091 2.045-1.951 3.834-3.997 3.954-.254.015-.51.018-.764.018-15.132.001-30.264-.005-45.396.011-1.602.002-2.978-.447-3.883-1.792-.43-.641-.791-1.442-.853-2.197-.128-1.59-.039-3.199-.039-4.865H1.78v-.753c0-9.768-.002-19.535.002-29.302.001-2.239 1.46-4.066 3.576-4.478.39-.075.797-.07 1.196-.076.744-.012 1.488-.003 2.293-.003 0-1.627.114-7.223.114-9.353 0-1.863.863-2.176 2.6-2.176h22.87c2.868 0 3.72.307 3.72 2.881 0 .875-.015 1.75.016 2.624.005.16.168.4.315.456 2.673 1.014 4.724 2.75 6.163 5.224.1.17.385.322.588.328 1.092.032 2.188.064 3.277.006 2.562-.135 4.745 1.915 4.735 4.732-.036 9.712-.014 19.425-.014 29.138v.733zm-30.24-35.51H13.712a1.245 1.245 0 0 1-1.245-1.245V5c0-.797.646-1.443 1.442-1.443h19.534c.667 0 1.208.542 1.208 1.209v.498l1.691.147V1.776H10.703v40.768H31.52c-.628-1.14-.454-2.322-.468-3.48-.014-1.177-.003-2.355-.003-3.596h-.88a.846.846 0 0 1-.846-.846v-.008c0-.52.422-.943.942-.943h.737v-1.773h-.825a.862.862 0 0 1-.861-.862v-.127c0-.43.347-.776.775-.776h.958c0-.6-.033-1.146.01-1.686.038-.474-.12-.683-.581-.859-5.5-2.094-8.537-8.034-6.988-13.707.298-1.092.805-2.127 1.247-3.267zM8.849 13.287c-.924 0-1.783-.019-2.64.004-1.47.04-2.636 1.255-2.636 2.726-.001 9.826 0 19.651.001 29.477 0 .193.017.388.027.594h47.865v-.628-29.09c0-.182.004-.365-.012-.546-.114-1.297-1.036-2.412-2.207-2.49-1.194-.082-2.398-.02-3.63-.02l.398 1.735c.6 0 1.181-.007 1.762.004.216.004.44.021.644.084.839.257 1.273.934 1.273 2 .003 8.657.002 17.67 0 26.347a.825.825 0 0 1-.737.82.962.962 0 0 1-1.085-.975V16.85h-1.668c-.031.06-.056.09-.06.123-.012.09-.017.181-.021.272-.115 2.846-1.165 5.304-3.07 7.406-1.235 1.362-2.742 2.32-4.44 2.999-.183.072-.428.276-.44.434-.049.666-.02 1.337-.02 2.062h.941c.437 0 .791.354.791.791v.111a.88.88 0 0 1-.879.88h-.81v1.775h.8c.494 0 .894.4.894.894a.89.89 0 0 1-.89.89h-.848v4.976c-.003 2.416-1.467 3.895-3.867 3.895-7.068.002-20.46-.01-24.354-.022a1.088 1.088 0 0 1-1.085-1.09V16.851h-1.75V43.44c0 .494-.4.893-.892.893h-.056a.804.804 0 0 1-.801-.803c0-.304-.004-17.597.004-26.656 0-1.086.744-1.807 1.824-1.823.558-.009 1.116-.002 1.674-.002zm44.364 34.672H35.504c0 .204.002.365 0 .526-.02 2.14-1.383 3.222-3.76 2.915-2.891-.374-5.817-.284-8.717.02-2.2.23-3.495-.834-3.477-2.88.004-.512-.15-.637-.643-.634-3.697.019-7.394.01-11.09.01-1.84 0-3.68.01-5.518-.008-.415-.004-.55.122-.523.548.03.489.051.98.019 1.468-.138 2.078.946 3.292 2.902 3.293h45.618c.127 0 .255.004.382-.001 1.27-.052 2.406-1.058 2.5-2.32.072-.958.015-1.925.015-2.937zM34.582 7.068c-5.26.01-9.627 4.217-9.729 9.399-.111 5.671 4.235 10.118 9.726 10.118 5.335 0 9.793-4.393 9.785-9.644-.008-5.48-4.36-9.875-9.781-9.873zm-1.828-1.642l-.018-.088H14.963a.72.72 0 0 0-.72.72v2.428c0 .19.154.345.345.346h.003c3.784.001 7.568.006 11.351-.013.237 0 .523-.144.701-.31C28.28 6.98 30.18 5.977 32.375 5.54c.129-.025.253-.076.379-.114zm.127 30.09c0 1.9-.046 3.769.037 5.632.018.4.426.902.794 1.142 1.173.766 2.636-.074 2.664-1.508.033-1.69.008-3.381.004-5.073 0-.066-.037-.132-.055-.192h-3.444zm.838 12.445H21.326c-.007.15-.015.258-.017.365-.016 1.115.201 1.335 1.33 1.335h4.916c1.711 0 3.423.004 5.134-.002.697-.003.999-.301 1.028-.988.01-.231.002-.464.002-.71zm2.64-19.638h-3.493v1.773h3.493zm-3.5 5.32h3.48v-1.695h-3.48zm-20.393 4.543v-.099c0-.44.357-.798.798-.798H24.01c.441 0 .799.358.799.798v.1a.798.798 0 0 1-.799.798H13.264a.798.798 0 0 1-.798-.799zm-.002-18.722v-1.701h8.803v1.701h-8.803zm8.81-3.546h-8.797v-1.713h8.797v1.713zm.013 6.242c0 .468-.38.848-.848.848h-7.112a.847.847 0 1 1 0-1.697h7.112c.468 0 .848.38.848.849zm-4.44 9.73h-3.515a.858.858 0 0 1 0-1.715h3.515a.858.858 0 0 1 0 1.716zm7.97-.97v.21c0 .41-.332.742-.742.742h-3.759a.743.743 0 0 1-.742-.743v-.209c0-.41.332-.743.742-.743h3.76c.41 0 .742.333.742.743zm-12.351 3.682v-.007c0-.472.383-.855.854-.855h3.526c.472 0 .855.383.855.855v.007a.854.854 0 0 1-.855.854H13.32a.854.854 0 0 1-.854-.854zm7.097.118v-.262c0-.397.322-.718.718-.718h3.797c.396 0 .718.321.718.718v.262a.718.718 0 0 1-.718.718h-3.797a.718.718 0 0 1-.718-.718zm7.07-17.96c.01-4.358 3.641-7.957 7.996-7.922 4.401.035 7.977 3.642 7.966 8.035-.012 4.353-3.62 7.93-7.995 7.928-4.443-.002-7.975-3.567-7.966-8.042zm14.17.115c.008-3.442-2.76-6.237-6.188-6.246-3.388-.009-6.195 2.751-6.206 6.103-.012 3.495 2.734 6.302 6.176 6.314 3.381.012 6.21-2.795 6.218-6.17z"/></g></g></svg>