<svg xmlns="http://www.w3.org/2000/svg" width="61" height="69" viewBox="0 0 61 69"><g><g><path fill="#54cff0" d="M3.291 34.45a.233.233 0 0 1-.217.224l-.243.02c-.162.014-.302.026-.448.028a43.02 43.02 0 0 1-.6.003H1.37l-.482-.001a.236.236 0 0 1-.167-.069.228.228 0 0 1-.067-.165c.09-7.941 2.924-14.841 8.42-20.507 5.3-5.464 12.094-8.504 20.196-9.038v-.71c.002-.68.003-1.333-.002-1.986-.005-.82.126-1.714 1.142-2.129 1.009-.411 1.744.127 2.33.708 1.78 1.76 3.563 3.519 5.346 5.277l2.935 2.896c.1.1.195.202.3.315.048.054.1.11.154.167a.229.229 0 0 1 0 .315l-.18.192c-.123.133-.24.258-.364.381a17737.56 17737.56 0 0 1-6.997 6.906l-1.154 1.138-.244.24c-.637.609-1.362.789-2.1.52-.74-.271-1.14-.895-1.156-1.805-.013-.712-.01-1.422-.008-2.175l.003-.773c-5.346.365-9.75 2.406-13.454 6.235-3.623 3.744-5.519 8.387-5.635 13.802a.233.233 0 0 1-.234.227h-2.09a.233.233 0 0 1-.235-.223c-.218-5.816 2.238-11.682 6.737-16.094 4.63-4.54 10.788-6.885 17.342-6.605a.232.232 0 0 1 .224.23v3.283l5.659-5.724-5.616-5.614v3.37c0 .062-.025.121-.07.164a.238.238 0 0 1-.166.068h-.252c-7.815 0-14.458 2.548-19.748 7.577C6.333 20.255 3.49 26.76 3.29 34.45zm57.305.106c-.148 7.96-2.98 14.832-8.419 20.429-5.349 5.505-12.16 8.553-20.245 9.063.001.23.004.46.007.687.01.717.02 1.458-.03 2.183-.019.29-.107 1.02-.51 1.532a1.604 1.604 0 0 1-1.28.596c-.443 0-.863-.165-1.169-.463-2.282-2.228-4.595-4.514-6.832-6.726l-2.364-2.336a.228.228 0 0 1-.005-.32l.175-.188c.112-.121.218-.235.328-.343l1.404-1.388c2.328-2.298 4.656-4.597 6.989-6.89.48-.472 1.036-.728 1.552-.721.42.005.807.179 1.118.501.378.393.552.996.59 1.428.059.686.054 1.383.05 2.057-.002.289-.004.578 0 .867l.015.037c5.255-.368 9.767-2.465 13.41-6.234 3.657-3.783 5.55-8.426 5.627-13.802a.233.233 0 0 1 .234-.228h2.163c.127 0 .231.1.234.226.142 5.92-2.373 11.829-6.901 16.21-4.381 4.237-10.092 6.537-16.176 6.537-.346 0-.692-.008-1.04-.022a.233.233 0 0 1-.224-.231v-3.153l-5.633 5.571 5.593 5.43v-3.2a.23.23 0 0 1 .07-.165.238.238 0 0 1 .167-.066c7.857.099 14.578-2.435 19.96-7.528 5.426-5.133 8.271-11.646 8.457-19.359a.233.233 0 0 1 .235-.225h2.215a.232.232 0 0 1 .234.235zM39.669 25.52c2.452 2.421 3.8 5.68 3.793 9.175-.005 3.292-1.36 6.417-3.813 8.8-2.453 2.382-5.668 3.697-9.053 3.702h-.001c-3.486-.017-6.738-1.365-9.157-3.799-2.45-2.465-3.77-5.773-3.718-9.317.098-6.639 5.988-12.25 12.862-12.254h.008c3.444 0 6.668 1.312 9.08 3.693zm-9.062-1.066a10.233 10.233 0 0 0-7.195 2.918c-1.924 1.88-2.982 4.377-2.98 7.03.004 5.672 4.466 10.12 10.157 10.125h.01c5.584 0 10.15-4.462 10.178-9.95a9.956 9.956 0 0 0-2.965-7.176c-1.917-1.9-4.475-2.947-7.205-2.947zM14.667 52.2l-1.665 1.784a.236.236 0 0 1-.345 0l-1.738-1.866a.23.23 0 0 1 .015-.327l1.697-1.53a.237.237 0 0 1 .32.003l1.707 1.613a.229.229 0 0 1 .01.323zM46.54 16.792l1.648-1.784a.239.239 0 0 1 .176-.075c.067 0 .13.03.174.08l1.695 1.934a.229.229 0 0 1-.02.322l-1.6 1.437a.236.236 0 0 1-.316-.001l-1.743-1.588a.229.229 0 0 1-.014-.325zM9.032 44.824L6.82 45.872a.235.235 0 0 1-.318-.121l-.988-2.376a.23.23 0 0 1 .137-.305l2.287-.817a.235.235 0 0 1 .295.128l.913 2.145a.23.23 0 0 1-.114.298zm9.383 9.778a.228.228 0 0 1 .07.309l-1.252 2.078a.235.235 0 0 1-.33.075l-2.168-1.412a.229.229 0 0 1-.06-.33l1.473-1.972a.236.236 0 0 1 .32-.054zm31.3-34.358l1.975-1.472a.236.236 0 0 1 .335.055l1.44 2.124a.228.228 0 0 1-.072.326l-2.095 1.261a.235.235 0 0 1-.316-.067l-1.32-1.912a.229.229 0 0 1 .052-.315zM7.4 40.488l-2.367.58a.248.248 0 0 1-.181-.03.231.231 0 0 1-.105-.149l-.515-2.5a.228.228 0 0 1 .038-.18.237.237 0 0 1 .158-.096l2.417-.336a.234.234 0 0 1 .262.182l.466 2.26a.231.231 0 0 1-.173.27zM53.825 28.53l2.358-.58a.234.234 0 0 1 .287.178l.51 2.489a.232.232 0 0 1-.195.274l-2.425.36a.234.234 0 0 1-.265-.184l-.443-2.268a.231.231 0 0 1 .173-.269zM11.494 48.778l-1.98 1.438a.239.239 0 0 1-.18.041.237.237 0 0 1-.155-.1l-1.425-2.131a.23.23 0 0 1 .076-.327l2.087-1.225a.237.237 0 0 1 .314.069l1.318 1.92a.229.229 0 0 1-.055.315zm31.23-34.683l1.269-2.079a.234.234 0 0 1 .331-.072l2.143 1.426a.228.228 0 0 1 .057.33l-1.446 1.919a.235.235 0 0 1-.316.055l-1.966-1.266a.23.23 0 0 1-.072-.313zm9.457 10.09l2.218-1.042a.233.233 0 0 1 .317.12l.988 2.334a.228.228 0 0 1 0 .181.234.234 0 0 1-.135.125l-2.285.825a.235.235 0 0 1-.296-.126l-.921-2.118a.23.23 0 0 1 .114-.299zM29.276 35.76l5.472-5.43a.234.234 0 0 1 .347.016l1.456 1.753a.23.23 0 0 1-.016.312l-6.894 6.753a.234.234 0 0 1-.165.067.234.234 0 0 1-.166-.068l-4.669-4.623a.23.23 0 0 1 0-.326l1.431-1.433a.233.233 0 0 1 .169-.068c.063 0 .124.025.168.071z"/></g></g></svg>