<svg xmlns="http://www.w3.org/2000/svg" width="61" height="60" viewBox="0 0 61 60"><g><g><path fill="#54cff0" d="M60.726 44.335c.005 2.599-.943 4.525-2.897 5.887-1.094.763-2.398 1.118-4.104 1.118h-.013c-3.543-.004-7.086-.003-10.629-.002h-5a.14.14 0 0 0-.142.14v5.886c0 .077.063.14.141.14H45.763c.966 0 1.525.444 1.534 1.217.004.364-.1.655-.309.866-.26.263-.692.402-1.249.403-2.364.003-4.728.003-7.092.002h-22.7a8.161 8.161 0 0 1-.439-.004c-.838-.037-1.344-.534-1.32-1.297.022-.718.555-1.183 1.357-1.185a1416.845 1416.845 0 0 1 5.174-.003h2.68a.14.14 0 0 0 .14-.139V51.48a.14.14 0 0 0-.14-.141H2.408c-1.248 0-1.67-.418-1.67-1.655V11.49c.001-1.204.46-1.652 1.694-1.653l1.94-.002c3.114-.002 6.334-.006 9.5.018.445.002.927.137 1.257.35.41.264.543.75.357 1.298-.196.582-.623.878-1.269.885-1.026.008-2.07.007-3.08.005l-1.209-.001H8.315c-1.392 0-2.783 0-4.175.002-.152 0-.304.008-.463.017-.076.004-.154.009-.235.012a.14.14 0 0 0-.134.14v27.97c0 .078.063.14.14.14H9.62c14.26 0 34.125 0 48.385.006.068 0 .133.001.196.003V12.53a.14.14 0 0 0-.14-.14h-2.914c-2.396.002-4.872.003-7.307-.008-.4-.002-.735-.061-.997-.177-.554-.246-.656-.757-.644-1.143.017-.535.274-.907.742-1.075a2.85 2.85 0 0 1 .95-.144c3.574-.01 7.209-.008 10.723-.007h.378c1.306.002 1.725.425 1.725 1.742 0 2.95 0 5.9-.002 8.85-.002 7.836-.004 15.938.01 23.907zm-2.525-1.12a5.766 5.766 0 0 1-.21.004c-14.288.007-34.418.007-48.467.007H3.46a.14.14 0 0 0-.141.14v5.321c0 .078.063.141.14.141H53.653c2.976 0 4.549-1.57 4.55-4.541v-1.072zm-22.863 8.308a.14.14 0 0 0-.14-.14H26.25a.14.14 0 0 0-.141.14v5.804c0 .078.063.14.14.14h8.948a.14.14 0 0 0 .14-.14zM18.552 33.769V1.706c0-1.321.377-1.704 1.681-1.706 6.997-.01 14.073-.01 21.034 0 1.233.001 1.629.414 1.63 1.699.002 3.385.002 6.77.001 10.156v3.905c0 1.37-.006 2.738-.012 4.107-.013 3.108-.026 6.322.032 9.482.032 1.715-.564 3.282-1.677 4.413-1.132 1.15-2.724 1.782-4.485 1.782h-7.454c-2.985 0-5.97 0-8.955-.002-1.342-.001-1.795-.448-1.795-1.773zM40.415 7.775c.001-.273-.022-.548-.198-.724-.138-.137-.35-.199-.683-.199h-.012c-4.54.02-9.156.017-13.62.016l-3.944-.001h-.67a.14.14 0 0 0-.141.14v17.6c0 .078.062.14.14.14h.7c1.337-.003 2.667 0 4 0 4.424-.003 8.997-.005 13.495.017h.015c.35 0 .57-.064.713-.207.182-.181.206-.467.205-.75-.017-5.298-.017-10.692 0-16.032zm-19.308-3.6a.14.14 0 0 0 .14.142h15.048l1.043.001c.75 0 1.51-.002 2.262-.01.007 0 .683-.024.726-.295.075-.471.069-.892-.02-1.249-.066-.27-.772-.28-.852-.28-4.916-.008-9.915-.007-14.748-.007h-3.459a.14.14 0 0 0-.14.14zm-.013 23.988c.04 1.466.024 2.914.004 4.136-.005.263.048.441.164.56.118.119.292.172.564.172h.004c2-.004 3.999-.003 5.998-.003 3.008.001 6.12.003 9.18-.012 1.852-.01 3.207-1.278 3.371-3.16.024-.269.02-.542.016-.806a7.337 7.337 0 0 1 .019-.819c.033-.332-.018-.56-.16-.715-.191-.21-.52-.234-.805-.232-2.14.017-4.317.015-6.421.013l-2.29-.002c-.757 0-1.514 0-2.271.002-2.133.002-4.338.004-6.507-.014-.34-.003-.546.058-.682.196-.136.139-.193.35-.184.684zm9.65 16.448c.708.003 1.246.532 1.25 1.228a1.238 1.238 0 0 1-1.238 1.248c-.681.012-1.264-.53-1.287-1.205a1.2 1.2 0 0 1 .342-.885 1.28 1.28 0 0 1 .927-.386h.005z"/></g></g></svg>