<svg xmlns="http://www.w3.org/2000/svg" width="19" height="19" viewBox="0 0 19 19"><g><g><path fill="#fff" d="M0 9.489c.003-5.24 4.265-9.5 9.504-9.5 5.23 0 9.507 4.283 9.496 9.51-.01 5.237-4.297 9.511-9.518 9.492C4.247 18.971-.004 14.713 0 9.489zm17.384.143a7.87 7.87 0 0 0-7.748-8.025 7.864 7.864 0 0 0-8.019 7.751c-.075 4.355 3.389 7.944 7.734 8.017 4.374.072 7.962-3.387 8.033-7.743zm-9.395 1.595c.821-.828 1.623-1.637 2.428-2.445.82-.823 1.643-1.646 2.467-2.466.328-.327.686-.39 1.015-.193.467.28.563.834.183 1.225-.768.79-1.552 1.567-2.33 2.347l-3.118 3.12c-.455.455-.87.455-1.321 0-.8-.802-1.6-1.605-2.4-2.405-.233-.234-.28-.509-.173-.809.107-.3.329-.48.643-.53.283-.044.511.08.706.274.564.56 1.127 1.123 1.69 1.683.059.058.12.113.21.199z"/></g></g></svg>