<svg xmlns="http://www.w3.org/2000/svg" width="22" height="20" viewBox="0 0 22 20"><g><g><path fill="#fff" d="M10.95 19.999H2.072c-1.196 0-2.059-.825-2.062-1.985C.002 14.685 0 11.357 0 8.028c0-.807.433-1.371 1.093-1.815 2.349-1.58 4.69-3.17 7.034-4.756.503-.34 1.002-.686 1.511-1.018.937-.611 1.853-.578 2.779.05 2.73 1.852 5.452 3.715 8.21 5.527.967.635 1.39 1.4 1.37 2.556-.053 3.139-.008 6.28.005 9.42a2.016 2.016 0 0 1-2.013 2.006c-3.012.002-6.025 0-9.037 0zm9.593-12.312c-.155-.134-.258-.245-.382-.33-2.863-1.933-5.73-3.86-8.59-5.8-.423-.286-.772-.263-1.19.02C7.58 3.48 4.766 5.363 1.959 7.255c-.168.114-.318.25-.504.399.116.097.187.17.27.224 2.14 1.392 4.287 2.775 6.416 4.182.292.193.463.098.692-.05 2.034-1.32 2.294-1.326 4.307-.003.296.196.489.195.781.002 1.927-1.273 3.869-2.525 5.805-3.784.26-.169.517-.339.817-.537zm-.01 10.812c-.216-.171-.315-.263-.426-.335a7352.724 7352.724 0 0 0-8.378-5.468c-.674-.44-.812-.436-1.508.018a7842.128 7842.128 0 0 0-6.545 4.272c-.708.462-1.412.927-2.118 1.392l.014.144c.223.05.445.143.667.144 5.834.007 11.667.007 17.5 0 .227 0 .453-.093.794-.167zm-5.764-5.437c1.972 1.285 3.875 2.526 5.811 3.79v-7.57l-5.811 3.78zm-13.351 3.78l5.796-3.783-5.796-3.766v7.549z"/></g></g></svg>