<svg xmlns="http://www.w3.org/2000/svg" width="20" height="20" viewBox="0 0 20 20"><g><g><path fill="#fff" d="M18.985 15.497c.217.304.215.6-.005.907-1.281 1.78-2.903 2.906-4.82 3.349-2.808.648-5.27.026-7.315-1.846-1.456-1.333-2.864-2.772-4.226-4.163l-.258-.263C.826 11.914.031 10.016 0 7.843c.073-2.868 1.24-5.092 3.57-6.798.368-.27.602-.264 1.003.025 1.802 1.298 2.974 3.068 3.481 5.26.08.344.012.586-.226.811-.347.328-.677.666-.996.994-.602.617-.604 1.407-.004 2.011.977.986 1.992 2 3.015 3.016.62.615 1.421.612 2.04-.007.12-.12.24-.24.362-.358.208-.205.423-.418.63-.632.219-.227.462-.295.788-.22 2.213.504 4.004 1.699 5.323 3.552zm-1.394.342c-.784-1.085-2.45-2.202-3.715-2.488-.165-.037-.364.042-.475.139-.15.131-.296.27-.437.405-.175.165-.355.337-.54.49-.866.717-2.375.704-3.166-.029a80.089 80.089 0 0 1-3.409-3.33c-.904-.943-1.043-2.226-.353-3.268.199-.3.468-.574.73-.838l.239-.246c.142-.15.27-.343.143-.645a8.87 8.87 0 0 1-.174-.46 6.904 6.904 0 0 0-.25-.636 6.943 6.943 0 0 0-2.01-2.52.203.203 0 0 0-.251 0C2.39 3.633 1.52 5.21 1.335 7.1c-.21 2.137.498 4.032 2.102 5.634.607.605 1.213 1.211 1.819 1.818l2.022 2.021c1.412 1.41 3.057 2.12 4.899 2.12.285 0 .576-.018.87-.052 1.795-.208 3.321-1.068 4.537-2.554a.205.205 0 0 0 .007-.248zm-4.024-10.09c.023-.047.044-.094.064-.141.056-.127.11-.247.185-.325.713-.736 1.483-1.51 2.497-2.507.295-.29.683-.3.964-.024a.584.584 0 0 1 .18.438.75.75 0 0 1-.229.494c-.738.752-1.533 1.547-2.502 2.505-.219.216-.494.265-.754.134-.225-.113-.352-.292-.405-.574zM10.2 3.954a323.46 323.46 0 0 1 0-3.214c.002-.449.258-.739.65-.74h.002c.394 0 .642.284.647.74.004.375.003.76.002 1.131a140.714 140.714 0 0 0 0 .976c.001.362.002.737-.002 1.105-.005.458-.253.744-.646.744-.388 0-.65-.298-.653-.742zm9.8 5.198c-.002.392-.268.63-.711.64h-2.158c-.367.001-.746.002-1.118-.002-.433-.005-.701-.252-.7-.646.002-.39.28-.644.708-.647a299.929 299.929 0 0 1 3.28 0c.42.003.7.266.699.655z"/></g></g></svg>