<svg xmlns="http://www.w3.org/2000/svg" width="50" height="50" viewBox="0 0 50 50"><g><g><path fill="#3652e4" d="M48.597 40.192c-2.486.298-4.968.623-7.457.89-.491.053-.7.262-.87.684-.963 2.375-1.953 4.74-2.92 7.113-.224.548-.497 1.153-1.132 1.077-.459-.056-.996-.4-1.286-.78-2.877-3.77-5.708-7.577-8.558-11.37-.834-1.11-1.685-1.198-2.532-.035-2.795 3.833-5.674 7.604-8.511 11.405-.352.472-.715.9-1.363.81-.652-.087-.888-.611-1.109-1.15-.972-2.372-1.962-4.736-2.925-7.111-.162-.4-.357-.588-.816-.636-2.616-.276-5.228-.595-7.84-.903C.043 40.04-.37 39.118.37 38.112c2.488-3.39 4.988-6.772 7.483-10.156.196-.265.387-.532.617-.848l-2.074-1.371c-.955-.63-1.076-1.048-.574-2.048.598-1.192 1.232-2.366 1.788-3.577a1.383 1.383 0 0 0 0-1.03c-.56-1.21-1.194-2.383-1.802-3.57-.474-.926-.347-1.437.525-2.013 1.068-.705 2.12-1.437 3.226-2.077.526-.305.66-.674.673-1.232a97.7 97.7 0 0 1 .196-3.847c.067-1.031.38-1.36 1.42-1.43 1.351-.09 2.707-.11 4.056-.221.294-.025.664-.233.833-.474.746-1.073 1.428-2.19 2.14-3.286.678-1.046 1.066-1.156 2.153-.605 1.185.6 2.355 1.233 3.555 1.803.246.117.64.12.885.004C26.69 1.548 27.88.9 29.086.282c.944-.483 1.425-.36 2.001.524.742 1.138 1.449 2.3 2.222 3.417.167.24.542.444.837.469 1.298.107 2.602.134 3.902.206 1.205.067 1.53.405 1.586 1.6.062 1.308.098 2.62.205 3.924.025.296.231.671.472.84 1.13.791 2.308 1.516 3.459 2.28.824.549.94.99.496 1.887-.592 1.194-1.177 2.393-1.823 3.558-.26.47-.22.829.02 1.271.61 1.127 1.183 2.274 1.767 3.415.501.982.373 1.446-.563 2.06-.66.433-1.324.864-2.066 1.349.878 1.204 1.731 2.375 2.586 3.544 1.786 2.443 3.576 4.882 5.36 7.327.861 1.18.478 2.069-.95 2.24zm-28.798-.858c-.341-.384-.646-.656-.866-.987-.739-1.108-1.422-2.255-2.186-3.344-.181-.259-.583-.475-.901-.501-1.322-.11-2.65-.135-3.976-.203-1.004-.052-1.368-.408-1.441-1.413-.047-.64-.058-1.281-.095-1.922-.04-.69-.093-1.381-.153-2.253l-6.888 9.34c.383.057.628.098.874.128 2.053.24 4.105.496 6.162.706.732.075 1.143.444 1.402 1.106.467 1.194.97 2.373 1.459 3.556.395.954.793 1.907 1.23 2.959l5.379-7.172zm9.73-2.816c.77-1.194 1.531-2.343 2.258-3.514.346-.556.8-.804 1.45-.823 1.346-.04 2.691-.124 4.095-.193.058-1.09.201-2.14.147-3.179-.071-1.36.385-2.281 1.622-2.911.963-.49 1.832-1.168 2.747-1.765-.644-1.266-1.206-2.447-1.839-3.588-.379-.685-.342-1.275.03-1.947.628-1.139 1.19-2.314 1.807-3.53-1.148-.747-2.241-1.499-3.374-2.183-.641-.387-.94-.903-.945-1.632-.002-.384-.008-.77-.03-1.154-.056-.962-.123-1.923-.185-2.89-1.401-.067-2.7-.153-4-.185-.705-.017-1.196-.275-1.57-.892-.701-1.156-1.457-2.278-2.215-3.452-1.233.638-2.42 1.223-3.579 1.863-.65.36-1.227.347-1.873-.01-1.158-.639-2.345-1.224-3.56-1.852-.731 1.133-1.475 2.207-2.133 3.33-.428.731-.995 1.014-1.815 1.026-1.268.018-2.535.114-3.861.18-.07 1.392-.165 2.718-.195 4.047-.017.712-.279 1.206-.885 1.582-1.148.712-2.268 1.468-3.43 2.226.64 1.257 1.23 2.476 1.876 3.665.33.608.313 1.138-.01 1.739-.64 1.19-1.23 2.406-1.863 3.658 1.168.762 2.287 1.52 3.436 2.231.609.377.861.873.876 1.585.029 1.328.123 2.655.193 4.036 1.246.061 2.44.178 3.63.162 1.005-.014 1.676.335 2.176 1.229.598 1.067 1.312 2.07 2.001 3.14 1.271-.649 2.504-1.255 3.712-1.906.551-.297 1.036-.3 1.588-.004 1.21.651 2.442 1.259 3.718 1.911zm17.396 1.545l-6.948-9.265-.154.082c-.065 1.33-.123 2.66-.197 3.99-.054.983-.455 1.38-1.432 1.43-1.3.065-2.6.153-3.901.164-.532.005-.827.201-1.097.635-.882 1.419-1.801 2.814-2.742 4.275l5.334 7.104c.148-.323.258-.544.352-.772.806-1.94 1.617-3.877 2.405-5.825.236-.582.601-.91 1.241-.972 1.219-.12 2.434-.28 3.65-.425 1.122-.134 2.242-.27 3.49-.421zM31.458 18.64c-.543.674-1.25 1.21-1.826 1.862-.196.22-.306.622-.275.922.09.866.269 1.722.417 2.581.093.542.062 1.122-.471 1.339-.393.159-.955.15-1.353-.008-.825-.329-1.578-.837-2.39-1.206a1.205 1.205 0 0 0-.894.002c-.857.394-1.667.89-2.52 1.294-.93.44-1.724-.103-1.694-1.344.114-.664.241-1.553.426-2.431.11-.524.045-.917-.382-1.292-.634-.556-1.265-1.134-1.788-1.792-.262-.33-.478-.923-.358-1.274.124-.359.647-.682 1.06-.814a6.595 6.595 0 0 1 1.96-.297c.923-.003 1.444-.4 1.748-1.26.221-.623.51-1.244.887-1.784.252-.358.72-.802 1.075-.789.401.017.906.422 1.151.799.47.724.75 1.572 1.191 2.32.165.28.53.537.848.61.794.18 1.612.251 2.422.359.56.074 1.159.245 1.218.85.043.44-.167 1-.452 1.353zm-3.128-.176c-1.715.06-2.754-.657-3.195-2.35-.49 1.635-1.5 2.436-3.246 2.264.556.65 1.193 1.1 1.387 1.698.202.62-.024 1.38-.073 2.247 1.286-1.137 2.548-1.11 3.888-.067-.585-1.62-.172-2.842 1.239-3.792zm-3.328 12.418c-6.229 0-11.296-5.095-11.296-11.359 0-6.263 5.067-11.359 11.296-11.359 6.23 0 11.297 5.096 11.297 11.36 0 6.263-5.067 11.358-11.297 11.358zm8.915-11.359c0-4.942-4-8.963-8.915-8.963-4.915 0-8.914 4.021-8.914 8.963 0 4.942 4 8.963 8.914 8.963 4.916 0 8.915-4.02 8.915-8.963z"/></g></g></svg>