<svg xmlns="http://www.w3.org/2000/svg" width="44" height="53" viewBox="0 0 44 53"><g><g><path fill="#3652e4" d="M30.592 29.002c-.672 1.032-1.366 2.098-2.024 3.16-.326.525-.599 1.105-.863 1.667-.133.284-.271.578-.416.865-.181.358-.213.57.081.886a.319.319 0 0 1-.216.536c-.424.025-.477.195-.567.61a4.321 4.321 0 0 1-.051.22c-.387 1.441-.57 2.99-.575 4.874-.003 1.252-.002 2.504-.002 3.757v2.505c0 1.125-.403 1.524-1.535 1.525l-5.425.002-5.434-.002c-1.14 0-1.525-.387-1.527-1.53-.002-.706.003-1.413.009-2.12.013-1.646.026-3.348-.056-5.012-.057-1.142-.276-2.306-.488-3.432-.066-.35-.132-.698-.193-1.048-.01-.058-.135-.206-.315-.315-.265-.161-.553-.296-.859-.44-.133-.062-.27-.126-.407-.194a.32.32 0 0 1-.136-.447c.045-.078.085-.153.124-.226a2.37 2.37 0 0 1 .304-.481c.306-.35.311-.648.019-1.104-.566-.884-1.131-1.788-1.678-2.662a249.452 249.452 0 0 0-1.886-2.985c-1.114-1.728-2.342-3.766-2.81-6.086-.893-4.417.057-8.492 2.823-12.114C9.63 5.3 13.89 3.213 19.153 3.207h.016c7.606 0 14.19 5.664 15.32 13.181.521 3.466-.2 6.794-2.143 9.89-.575.915-1.174 1.835-1.754 2.724zM14.416 47.23h9.146v-4.478h-9.145v1.151h7.975a.32.32 0 0 1 .322.32v1.67a.32.32 0 0 1-.322.32h-7.976zm9.385-6.884c.21-4.06 1.611-7.937 4.277-11.84a109.178 109.178 0 0 0 2.285-3.484c1.811-2.886 2.372-5.896 1.667-8.948-1.252-5.419-4.559-8.82-9.829-10.11-5.272-1.291-9.789.163-13.425 4.321-3.422 3.913-4.088 9.46-1.658 13.804.75 1.337 1.621 2.644 2.464 3.908.155.232.31.463.464.696 2.114 3.185 3.336 6.072 3.846 9.082.11.65.188 1.312.263 1.953l.073.612h3.6v-6.395c0-.09-.002-.179-.003-.268a7.145 7.145 0 0 1 .012-.697c.052-.652.551-1.12 1.184-1.104.637.013 1.09.473 1.127 1.146.006.107.005.215.004.323v7.002zm.632 11.474c.003.316-.105.593-.313.8-.244.246-.604.376-1.042.377a2379.753 2379.753 0 0 1-8.233 0c-.775-.002-1.305-.467-1.317-1.156a1.08 1.08 0 0 1 .303-.797c.237-.24.582-.37 1-.371.988-.006 1.976-.005 2.964-.003h2.383c.962-.001 1.924-.002 2.886.002.839.002 1.364.443 1.37 1.148zm11.64-33.455h1.622a.32.32 0 0 1 .321.32v1.755a.32.32 0 0 1-.352.318l-1.693-.16a.32.32 0 0 1-.29-.332l.071-1.596a.32.32 0 0 1 .321-.305zM25.58 3.293l.647-1.573a.32.32 0 0 1 .44-.165l1.583.787a.32.32 0 0 1 .143.431l-.77 1.5a.321.321 0 0 1-.429.142L25.735 3.7a.32.32 0 0 1-.156-.407zM1.972 19.505H.32a.32.32 0 0 1-.32-.32v-1.722a.32.32 0 0 1 .34-.32l1.653.105c.169.01.3.15.3.319v1.618a.32.32 0 0 1-.32.32zM15.773.552a.322.322 0 0 1 .283-.357l1.743-.196a.32.32 0 0 1 .356.3l.098 1.682a.32.32 0 0 1-.284.336l-1.628.187a.321.321 0 0 1-.355-.278zm5.084 1.526l.23-1.686a.32.32 0 0 1 .373-.273l1.727.306a.32.32 0 0 1 .259.379l-.34 1.65a.32.32 0 0 1-.367.251l-1.617-.27a.32.32 0 0 1-.265-.357zM5.084 28.156a.318.318 0 0 1-.095.428l-1.403.953a.322.322 0 0 1-.456-.098l-.917-1.503a.32.32 0 0 1 .113-.443l1.477-.852a.322.322 0 0 1 .436.112zm5.568-25.921a.319.319 0 0 1 .165-.44l1.63-.667c.163-.067.35.01.418.172l.65 1.551a.32.32 0 0 1-.17.418l-1.506.638a.321.321 0 0 1-.413-.15zm19.091 3.95a.319.319 0 0 1-.027-.45l1.13-1.272a.322.322 0 0 1 .456-.025L32.59 5.6a.32.32 0 0 1 .002.471l-1.25 1.145a.321.321 0 0 1-.43.003zM2.783 9.13a.318.318 0 0 1 .05-.241l1-1.454a.321.321 0 0 1 .465-.07l1.33 1.055c.13.103.159.29.065.428l-.906 1.34a.322.322 0 0 1-.445.088l-1.422-.94a.32.32 0 0 1-.137-.206zm30.166.596a.318.318 0 0 1 .094-.425l1.39-.96a.321.321 0 0 1 .458.098l.918 1.515a.318.318 0 0 1-.117.443l-1.484.834a.323.323 0 0 1-.434-.116zm2.28 19.032a.318.318 0 0 1-.05.24l-1.002 1.454a.318.318 0 0 1-.265.14.322.322 0 0 1-.201-.071l-1.326-1.063a.318.318 0 0 1-.064-.429l.918-1.343c.1-.145.299-.183.445-.084l1.41.95a.32.32 0 0 1 .135.206zM6.276 5.239a.318.318 0 0 1 .038-.461l1.373-1.11a.319.319 0 0 1 .242-.07.32.32 0 0 1 .217.125l1.023 1.35c.103.137.08.33-.053.44l-1.264 1.03a.322.322 0 0 1-.444-.036zm28.917 8.411l1.608-.57a.32.32 0 0 1 .418.22l.466 1.775a.318.318 0 0 1-.256.395l-1.675.29a.32.32 0 0 1-.365-.233l-.398-1.494a.319.319 0 0 1 .202-.383zM2.817 24.313l-1.642.43a.321.321 0 0 1-.392-.229l-.448-1.692a.319.319 0 0 1 .253-.395l1.673-.304a.321.321 0 0 1 .368.232l.417 1.567a.318.318 0 0 1-.229.391zm27.793 7.063l1.124 1.274a.319.319 0 0 1-.04.459l-1.378 1.115a.322.322 0 0 1-.203.071l-.041-.002a.32.32 0 0 1-.218-.129l-1.006-1.366a.318.318 0 0 1 .057-.436l1.261-1.023a.323.323 0 0 1 .444.037zm5.792-5.481l-1.586-.577a.319.319 0 0 1-.195-.401l.515-1.525a.322.322 0 0 1 .385-.208l1.645.426a.322.322 0 0 1 .223.412l-.573 1.676a.32.32 0 0 1-.414.197zM.643 14.13a.318.318 0 0 1-.023-.255l.563-1.674a.32.32 0 0 1 .409-.2l1.597.545a.319.319 0 0 1 .201.4l-.501 1.54a.321.321 0 0 1-.383.21l-1.659-.41a.324.324 0 0 1-.204-.156zm7.632 17.568c.13.117.141.315.027.447l-1.117 1.274a.323.323 0 0 1-.223.109h-.02a.324.324 0 0 1-.215-.082l-1.301-1.172a.318.318 0 0 1-.013-.462L6.61 30.61a.322.322 0 0 1 .444-.011zm18.92-9.954c-.098.074-.178.335-.3.757.002.03.024.09.047.116.103.122.22.236.344.356.115.11.233.225.344.35.502.57.503 1.17.004 1.69a70.665 70.665 0 0 1-2.347 2.337c-.377.359-.985.65-1.74.006l-.026-.022a1.09 1.09 0 0 1-.218-.226c-.318-.473-.61-.537-1.152-.254-.267.14-.293.21-.292.454.006.802-.013 1.313-.332 1.631-.317.319-.834.341-1.648.341l-.7.002h-.7c-.304 0-.608 0-.912-.003-.986-.01-1.43-.446-1.436-1.414v-.106c-.001-.868-.06-.949-.884-1.133a.284.284 0 0 0-.09.049c-.115.099-.223.208-.338.323-.133.134-.271.274-.425.402-.56.465-1.146.454-1.653-.027A75.44 75.44 0 0 1 10.357 25c-.466-.484-.472-1.1-.016-1.645l.012-.014c.083-.1.177-.212.304-.303.453-.324.514-.581.25-1.06-.163-.295-.222-.335-.476-.332-.768.013-1.298-.004-1.628-.327-.327-.32-.352-.844-.352-1.606l-.001-.728a91.182 91.182 0 0 1 .005-1.73c.014-.883.454-1.32 1.345-1.337.207-.004.415-.005.621-.006.106 0 .212 0 .317-.002l.41-.975-.077-.064a7.71 7.71 0 0 1-.64-.57c-.567-.583-.571-1.246-.01-1.819.745-.762 1.496-1.509 2.232-2.22.422-.409.797-.472 1.04-.453.221.017.547.121.844.516.46.61.878.683 1.541.267l.053-.03-.001-.187c-.002-.286-.005-.582.004-.875.022-.73.48-1.19 1.199-1.2 1.042-.015 2.126-.016 3.314-.001.715.008 1.159.436 1.215 1.172.006.07.005.14.005.21v.073c.003.455.006.751.082.851.078.102.38.192.8.315a.267.267 0 0 0 .111-.045c.126-.104.243-.224.368-.35.094-.098.192-.198.297-.294.59-.54 1.223-.54 1.781 0 .796.77 1.572 1.542 2.306 2.296.351.36.643.943.045 1.679l-.015.019c-.08.1-.173.212-.297.304-.456.33-.516.588-.249 1.064.167.297.222.338.477.334.771-.012 1.301.005 1.633.33.332.325.357.862.357 1.645l.001.71c.002.52.003 1.06-.004 1.591-.013.985-.467 1.433-1.472 1.454h-.055c-.426.005-.733.009-.837.086zm-1.923-1.391c.266-.774.51-1.034 1.43-1.043h.454v-1.065c-.19-.001-.369-.002-.544.003-.634.019-1.08-.297-1.318-.945a21.486 21.486 0 0 0-.798-1.94c-.3-.619-.214-1.139.255-1.547.127-.109.258-.209.378-.296l-.794-.83a3.89 3.89 0 0 1-.3.332c-.625.604-.976.587-1.713.23a16.391 16.391 0 0 0-1.748-.717c-.814-.282-1.043-.587-1.066-1.418a13.59 13.59 0 0 1-.003-.459h-1.038v.641c-.003.577-.297.974-.875 1.183-.784.282-1.47.562-2.096.854-.685.321-1.147.063-1.415-.21a4.553 4.553 0 0 1-.418-.51l-.859.837c.15.115.293.226.435.35.486.424.57.961.25 1.597-.336.669-.593 1.28-.785 1.868-.222.685-.663 1.007-1.343.98a11.973 11.973 0 0 0-.531-.004v1.066h.45c.85.009 1.18.253 1.467 1.089.243.707.473 1.254.723 1.723.34.635.26 1.188-.238 1.646a4.446 4.446 0 0 1-.397.319l.811.843c.136-.163.265-.318.406-.47.406-.441.9-.514 1.51-.222.636.304 1.289.573 1.94.8.676.234.994.656.97 1.29a12.31 12.31 0 0 0-.004.557h1.042a7.262 7.262 0 0 1 .008-.631c.042-.589.355-.992.929-1.199a26.164 26.164 0 0 0 2.048-.84c.552-.253 1.029-.183 1.416.209.143.144.273.3.385.436l.86-.738a5.52 5.52 0 0 1-.362-.326c-.61-.615-.594-.98-.244-1.704.282-.58.525-1.166.722-1.74zm-3.02-4.767a4.518 4.518 0 0 1 1.328 3.238c-.018 2.45-2.117 4.517-4.586 4.517h-.012a4.516 4.516 0 0 1-3.224-1.355 4.574 4.574 0 0 1-1.324-3.25 4.468 4.468 0 0 1 1.35-3.192 4.557 4.557 0 0 1 3.214-1.314h.019a4.559 4.559 0 0 1 3.235 1.356zm-5.477 3.156a2.244 2.244 0 0 0 2.213 2.267h.02c1.185 0 2.196-1 2.211-2.196a2.213 2.213 0 0 0-2.21-2.255h-.01c-1.216 0-2.213.978-2.224 2.184zM44 43.03c-.009.617-.482 1.035-1.218 1.077-3.007.17-5.165 2.295-5.343 5.263-.049.799-.45 1.256-1.101 1.256-.64-.001-1.041-.464-1.095-1.264-.202-2.991-2.318-5.07-5.35-5.255-.722-.045-1.215-.484-1.218-1.086-.003-.602.426-1.05 1.133-1.08 3.287-.135 5.42-2.684 5.455-5.46.008-.647.474-1.08 1.05-1.093.652-.017 1.077.448 1.125 1.236.12 1.969.968 3.554 2.71 4.504.799.435 1.764.601 2.675.788.749.154 1.187.483 1.177 1.114zm-5.656.003a7504.8 7504.8 0 0 1-1.983-2.043l-1.98 1.986 1.948 2 2.015-1.943z"/></g></g></svg>