<svg xmlns="http://www.w3.org/2000/svg" width="55" height="50" viewBox="0 0 55 50"><g><g><path fill="#3652e4" d="M55 3.206v45.695a1.1 1.1 0 0 1-1.104 1.096h-41.93a1.1 1.1 0 0 1-1.105-1.096v-22.45a1.1 1.1 0 0 1 1.104-1.096 1.1 1.1 0 0 1 1.105 1.096v19.426l13.383-18.609a1.109 1.109 0 0 1 1.724-.093l4.868 5.42 9.662-15.9-3.995 1.361a1.106 1.106 0 0 1-1.403-.68 1.094 1.094 0 0 1 .686-1.393l6.867-2.337.017-.005.074-.022.057-.011.03-.006c.051-.008.102-.013.151-.015h.019c.048 0 .095.002.142.008l.018.002c.05.007.1.017.148.03l.023.008c.044.012.087.029.13.047l.016.007c.044.02.087.045.128.07l.028.02a1.177 1.177 0 0 1 .122.094c.037.033.072.07.104.11l.011.01.006.01c.032.04.061.081.087.125l.012.02c.021.04.04.08.057.12l.011.026c.015.04.029.08.04.122l1.717 6.814a1.096 1.096 0 0 1-1.072 1.362c-.495 0-.945-.332-1.07-.83l-1.074-4.255L34.164 35a1.109 1.109 0 0 1-1.77.163l-4.947-5.505-13.05 18.148H52.79V4.302h-28.44a1.1 1.1 0 0 1-1.105-1.096 1.1 1.1 0 0 1 1.104-1.095h29.546A1.1 1.1 0 0 1 55 3.206zM11.376 23.504c-.404.002-.808.003-1.211-.002-.737-.008-1.137-.398-1.155-1.127a36.19 36.19 0 0 1 0-1.738c.006-.247-.06-.302-.213-.332a.817.817 0 0 1-.334-.126c-.515-.378-.906-.296-1.35.284-.212.279-.477.515-.733.743l-.07.063c-.545.485-1.097.494-1.596.023a71.26 71.26 0 0 1-2.47-2.453c-.468-.487-.467-1.02.003-1.54.429-.474.885-.911 1.235-1.239.155-.145.16-.24.096-.514-.192-.819-.65-1.104-1.53-.952-.297.05-.602.026-.897.004l-.06-.005c-.677-.053-1.07-.46-1.08-1.116a131.655 131.655 0 0 1 0-3.416c.008-.7.41-1.09 1.13-1.098a54.195 54.195 0 0 1 1.77.002c.243 0 .311-.093.345-.251a.71.71 0 0 1 .108-.287c.402-.535.303-.942-.353-1.452-.26-.202-.485-.447-.703-.683l-.072-.078c-.44-.479-.453-1.025-.031-1.463a78.501 78.501 0 0 1 2.571-2.554c.456-.432 1.021-.412 1.513.053.492.466.885.857 1.237 1.233.154.165.266.187.442.087a.653.653 0 0 0 .038-.023c.05-.031.112-.07.19-.081.7-.095.92-.46.818-1.346-.039-.326-.022-.66-.005-.98l.002-.054c.033-.65.442-1.06 1.068-1.07 1.264-.02 2.423-.02 3.542.002.66.012 1.067.447 1.09 1.163.007.247.005.498.003.741-.002.323-.005.658.016.983.007.103.12.272.209.312.547.246.797.353.995.317.201-.037.406-.24.815-.644l.142-.14c.196-.196.398-.398.618-.576.617-.5 1.096-.278 1.39-.004.968.905 1.822 1.75 2.61 2.584.308.326.54.859-.106 1.54-.398.42-.804.822-1.206 1.196-.14.13-.137.211-.07.477.217.87.682 1.17 1.553 1.007.275-.052.558-.034.831-.018l.173.01c.6.03.991.429.997 1.017.012 1.128.013 2.277.001 3.511-.006.656-.414 1.067-1.09 1.097-.57.026-1.133.022-1.803.008-.25-.005-.306.061-.337.211-.023.112-.05.236-.124.333-.385.5-.301.876.298 1.341.295.23.55.51.795.781l.047.052c.454.5.455 1.033.004 1.5a87.672 87.672 0 0 1-2.504 2.485c-.485.461-1.035.451-1.55-.03-.396-.369-.8-.77-1.24-1.229-.134-.14-.235-.143-.489-.081-.849.206-1.144.655-.986 1.501.063.334.028.679-.005 1.012l-.004.038c-.06.607-.466.976-1.085.987-.233.004-.467.006-.7.006l-.496-.002-.551-.001zm-.268-3.422v.148c0 .615 0 .986.127 1.105.126.12.498.1 1.113.07l.019-.002c.206-.01.22-.038.215-.206a28.23 28.23 0 0 1 .004-1.547c.014-.55.287-.91.832-1.096a19.548 19.548 0 0 0 1.99-.814c.75-.352 1.042-.358 1.674.263l.82.81.23.227 1.145-1.084-.275-.242c-.305-.268-.62-.545-.92-.833-.556-.535-.549-.844-.246-1.5.3-.65.579-1.316.828-1.977.265-.698.53-.895 1.234-.918.21-.006.423-.005.629-.004.27.002.549.005.82-.012a.383.383 0 0 0 .19-.124c.024-.338.02-.685.017-1.051l-.003-.272h-.441c-.425.001-.823.002-1.22 0-.704-.006-.954-.183-1.214-.865-.265-.693-.535-1.4-.862-2.061-.277-.56-.206-1.017.225-1.437l.219-.22.154-.156c.439-.436.703-.7.698-.874-.004-.174-.278-.422-.732-.833l-.015-.014c-.148-.133-.183-.122-.302.002-.245.255-.502.506-.75.749l-.348.341c-.392.39-.84.462-1.366.222a28.162 28.162 0 0 0-2.17-.893c-.564-.203-.841-.576-.846-1.141-.001-.123-.004-.246-.007-.369a10.39 10.39 0 0 1 .012-1.038c.012-.147-.006-.247-.05-.29-.044-.044-.147-.059-.303-.044-.25.024-.52.024-.803.001-.15-.012-.246.002-.287.042-.04.04-.055.13-.044.267.023.304.018.61.013.908-.003.181-.006.362-.003.543.01.534-.24.89-.765 1.089-.793.3-1.578.634-2.308.949-.485.21-.89.141-1.235-.208-.142-.144-.288-.285-.433-.426-.221-.214-.45-.436-.665-.666-.093-.1-.165-.148-.215-.148-.046.001-.108.045-.18.127a7.47 7.47 0 0 1-.699.695c-.082.072-.125.133-.126.178 0 .044.042.107.123.18.266.245.523.504.772.756l.23.231c.542.542.588.83.249 1.537A18.7 18.7 0 0 0 5.1 9.9c-.373 1.04-.49 1.123-1.552 1.123h-.29c-.581 0-.931 0-1.048.119-.118.12-.11.472-.096 1.057v.024c.003.125.02.203.052.232.028.026.097.037.199.032.423-.02.889-.02 1.466 0 .688.023.947.214 1.204.889.306.806.559 1.417.818 1.982.335.728.286 1.025-.261 1.585l-.21.21-.1.098c-.426.424-.684.68-.68.85.002.169.261.412.69.813l.022.02c.08.075.14.114.188.113.043-.001.105-.045.185-.13.322-.342.667-.672 1-.991l.068-.066c.241-.232.5-.347.783-.347.184 0 .378.05.584.147.71.337 1.462.623 2.125.875.676.257.852.506.86 1.212v.335zm.715-4.602a3.716 3.716 0 0 1-3.701-3.547 3.485 3.485 0 0 1 .86-2.562c.666-.764 1.614-1.227 2.67-1.301 2.079-.147 3.775 1.384 3.942 3.563.07.915-.264 1.854-.916 2.577a3.87 3.87 0 0 1-2.855 1.27zm1.187-4.846a1.638 1.638 0 0 0-1.154-.495h-.002c-.869 0-1.633.753-1.637 1.614a1.608 1.608 0 0 0 1.61 1.625c.916.012 1.636-.68 1.657-1.574a1.628 1.628 0 0 0-.474-1.17z"/></g></g></svg>