<svg xmlns="http://www.w3.org/2000/svg" width="90" height="91" viewBox="0 0 90 91"><g><g><path fill="#3652e4" d="M85.554 64.23c-.475 1.683-1.345 2.911-2.658 3.756-6.187 3.985-12.37 7.978-18.551 11.97-4.738 3.06-9.476 6.118-14.216 9.175-1.834 1.183-3.76 1.775-5.754 1.775-1.321 0-2.673-.26-4.05-.78a736.363 736.363 0 0 0-14.79-5.427c-1.098-.389-2.313-.477-3.249-.51-.838-.03-1.687.042-2.585.12-.345.03-.697.06-1.058.086l.001.325c.002.352.004.676-.004 1-.032 1.401-.514 1.88-1.91 1.894-1.67.016-3.367.013-5.008.01-.685-.002-1.361 0-2.054-.003l-2.203.001a848.74 848.74 0 0 1-5.378-.005C.51 87.61.002 87.107.001 85.55c-.009-10.96-.009-21.947 0-32.653.001-1.617.445-2.06 2.061-2.066 4.922-.014 9.743-.013 14.33 0 1.502.006 1.99.497 2.006 2.021.005.444.004.888.003 1.367l-.001.447c.304-.049.603-.099.899-.15.819-.137 1.593-.267 2.384-.349 3.242-.334 6.714-.46 10.132.861 2.02.781 3.541 1.829 4.648 3.203.483.599 1.036.84 1.89.835 4.75-.03 9.466-.033 14.018-.006 2.882.016 5.046 1.653 5.79 4.378.704 2.582-.5 5.48-2.803 6.745-.769.421-1.824.664-2.97.683-3.078.05-6.208.042-9.236.035-1.145-.004-2.292-.006-3.433-.006-.983 0-1.584.178-1.838.543-.25.36-.21.97.124 1.867.15.403.607 1.629-.71 2.189-.901.384-1.618.088-2.132-.879-.832-1.564-.835-3.255-.008-4.639.83-1.39 2.334-2.195 4.127-2.208 2.881-.02 5.812-.016 8.645-.012 1.583.001 3.166.004 4.749.002 1.354-.002 2.15-.491 2.581-1.588.457-1.16.079-2.707-.81-3.31-.51-.346-1.272-.566-1.987-.575-5.31-.065-9.375-.067-13.179-.005-2.222.037-3.914-.663-5.317-2.2-2.033-2.226-4.91-2.682-7.19-2.831-2.631-.174-5.27.079-8.06.769v22.968c.399 0 .796-.002 1.191-.004 1.141-.005 2.322-.01 3.477.018.719.018 1.351.121 1.88.308l1.331.469c4.952 1.743 10.072 3.547 15.082 5.395 2.565.946 4.922.687 7.206-.791 6.493-4.207 13.103-8.472 19.496-12.595 4.19-2.702 8.38-5.405 12.568-8.112 1.606-1.037 2.194-2.44 1.657-3.95-.296-.834-.83-1.417-1.5-1.642-.662-.22-1.424-.081-2.147.395-3.919 2.576-7.835 5.156-11.752 7.737l-7.046 4.642c-.926.61-2.087 1.164-2.85.04-.251-.368-.342-.738-.27-1.1.106-.533.547-1.04 1.389-1.595l3.565-2.348c5.02-3.306 10.04-6.613 15.06-9.917 2.347-1.544 4.379-1.567 6.395-.072 1.842 1.366 2.748 4.102 2.108 6.366zM3.284 54.047v30.366H15.46V54.046zM1.665 25.981c.302-.894 1.033-1.063 1.82-1.17 2.945-.398 5.99-.81 9.022-1.3.308-.05.742-.414.93-.78.895-1.733 1.77-3.514 2.616-5.238.372-.759.745-1.517 1.12-2.275l.106-.22c.313-.658.671-1.403 1.739-1.375 1.044.029 1.397.773 1.709 1.429.034.072.068.145.103.216.375.76.746 1.523 1.118 2.286.838 1.721 1.704 3.5 2.6 5.228.173.334.668.683 1.058.748 2.209.363 4.463.682 6.643.991.758.107 1.517.215 2.275.325.953.138 1.458.69 1.59 1.737a.216.216 0 0 1-.038.15c-.058.084-.119.183-.185.29-.17.275-.382.618-.665.896a396.16 396.16 0 0 1-6.297 6.03c-.463.433-.586.806-.47 1.424.588 3.11 1.118 6.236 1.558 8.884.108.65.016 1.166-.276 1.532-.262.33-.665.513-1.197.547-.44.027-.91-.184-1.27-.372L27 45.821c-2.384-1.24-4.849-2.523-7.243-3.843-.675-.372-1.144-.376-1.792-.016-1.5.831-3.041 1.642-4.532 2.428-.976.514-1.986 1.045-2.973 1.576-.378.204-.798.383-1.24.383-.33 0-.671-.099-1.018-.361-.73-.553-.606-1.293-.495-1.946l.008-.05c.554-3.291 1.005-6.061 1.408-8.886.042-.295-.146-.779-.402-1.036-1.724-1.733-3.509-3.462-5.235-5.135l-1.064-1.03c-.497-.484-1.06-1.03-.758-1.924zm24.55 6.546a311.468 311.468 0 0 0 3.73-3.62l.803-.788c.14-.138.271-.291.436-.485l.046-.055c-.627-.1-1.243-.198-1.85-.297-1.908-.306-3.709-.595-5.527-.854-.77-.11-1.242-.45-1.574-1.139a302.308 302.308 0 0 0-2.475-4.965l-.578-1.143c-.067-.133-.153-.26-.263-.421-.225.439-.454.867-.677 1.284-.62 1.157-1.204 2.25-1.638 3.405-.819 2.174-2.227 3.2-4.567 3.322-1.255.067-2.531.311-3.765.547-.422.081-.856.164-1.29.24.312.334.614.67.91.996.857.951 1.667 1.85 2.598 2.616 1.435 1.182 2.944 2.887 1.86 5.6-.068.17-.09.367-.114.575a5.967 5.967 0 0 1-.037.294l-.692 4.27 1.61-.84c1.543-.805 3-1.564 4.432-2.374.513-.29.987-.435 1.46-.435.472 0 .943.144 1.452.433 1.427.81 2.885 1.568 4.43 2.372.53.275 1.07.557 1.624.847-.105-.625-.204-1.235-.302-1.832-.286-1.752-.557-3.406-.874-5.047-.195-1.002.062-1.775.833-2.506zm48.373-4.132c-.454.432-.58.82-.466 1.435.443 2.393.954 5.235 1.378 8.17.088.615-.132 1.396-.514 1.817a1.25 1.25 0 0 1-.964.428c-.352 0-.756-.12-1.209-.362-.961-.511-1.945-1.02-2.897-1.511a193.662 193.662 0 0 1-4.26-2.247c-.634-.35-1.098-.344-1.772.024a227.852 227.852 0 0 1-4.403 2.316c-.89.46-1.78.92-2.666 1.387-.664.35-1.387.601-2.168.074-.853-.576-.7-1.438-.586-2.068.193-1.084.378-2.188.557-3.257.258-1.541.525-3.137.823-4.699.132-.69.016-1.075-.46-1.526-2.44-2.314-4.29-4.131-5.998-5.89-.419-.43-.77-1.28-.608-1.808.162-.522.944-1.023 1.536-1.123 2.962-.501 5.893-.884 8.116-1.162.687-.085 1.029-.327 1.306-.922a260.886 260.886 0 0 1 2.463-5.104c.339-.69.678-1.379 1.014-2.069l.093-.195c.29-.62.62-1.322 1.575-1.324h.006c1.102 0 1.613.758 2.001 1.579.543 1.146 1.105 2.307 1.648 3.43.58 1.197 1.179 2.435 1.756 3.66.217.459.445.721 1.031.795 2.002.251 4.03.548 5.993.836.775.113 1.55.226 2.326.337 1.346.193 1.74.741 1.69 2.348a.218.218 0 0 1-.033.109c-.018.027-.04.072-.068.126-.103.201-.276.539-.536.8a305.717 305.717 0 0 1-5.704 5.596zm-3.032-1.95c.641-.518 1.245-1.113 1.829-1.689.217-.213.433-.427.653-.638.518-.498 1.031-1 1.575-1.534l.469-.46c-.53-.078-1.054-.153-1.571-.227-1.812-.26-3.523-.505-5.24-.82-.58-.108-1.258-.59-1.542-1.1-.71-1.278-1.366-2.61-2-3.9-.27-.548-.541-1.097-.816-1.644a5.999 5.999 0 0 0-.282-.479l-.751 1.5c-.738 1.476-1.45 2.896-2.153 4.32-.416.842-1.004 1.268-1.907 1.383-1.638.208-3.29.463-4.889.71l-1.506.23c.268.285.533.57.796.851.787.842 1.53 1.639 2.304 2.43.418.428.766.762 1.045 1.03 1.316 1.263 1.334 1.326.973 3.403-.06.338-.128.732-.202 1.2-.17 1.07-.338 2.14-.516 3.275l-.197 1.257c.506-.267 1.003-.527 1.493-.784a262.23 262.23 0 0 0 4.439-2.362c.72-.395 1.352-.395 2.05-.001a88.905 88.905 0 0 0 2.855 1.527l.98.51c.52.274 1.04.542 1.62.84l.5.257c-.091-.55-.178-1.088-.263-1.615-.246-1.527-.48-2.97-.747-4.405-.254-1.358.055-2.303 1-3.065zm15.93 11.233c-.374.757-.783 1.268-1.43 1.268-.223 0-.475-.06-.763-.193-.442-.203-.715-.46-.833-.784-.147-.402-.067-.892.262-1.588 3.06-6.478 3.092-12.981.098-19.33C81.363 9.72 75.54 5.422 67.511 4.276c-5.63-.804-10.986.452-15.917 3.736a3.93 3.93 0 0 0-.307.237l.587.066c.737.081 1.374.152 2.02.254 1.665.263 1.775 1.258 1.692 1.828-.192 1.33-1.299 1.38-2.114 1.302-1.888-.18-3.847-.372-5.988-.587-.665-.067-1.12-.272-1.388-.627-.261-.345-.335-.812-.225-1.427.326-1.838.675-3.704 1.012-5.508l.169-.907c.046-.245.11-.456.193-.641.391-.868 1.086-1.253 1.901-1.057.838.2 1.263.893 1.137 1.851-.091.702-.224 1.41-.364 2.157l-.11.587a3.03 3.03 0 0 0 .067-.043c.274-.175.497-.318.715-.466C54.93 2.094 60.352.64 65.866.937c5.504.296 10.753 2.317 14.78 5.691 5.224 4.376 8.295 9.965 9.129 16.61.651 5.194-.119 10.052-2.289 14.44zM40.15 18.636c.395-1.175.887-2.317 1.36-3.375.315-.707.706-1.15 1.162-1.32.342-.127.711-.1 1.099.081 1.23.576.985 1.735.692 2.556-.185.522-.386 1.05-.58 1.561-.591 1.551-1.202 3.155-1.455 4.774-1.353 8.64 1.363 15.755 8.071 21.15 7.631 6.137 17.668 6.68 26.192 1.416.25-.153.493-.333.801-.562l.145-.106-.383-.042-1.822-.204c-.1-.01-.2-.017-.299-.024a3.56 3.56 0 0 1-.657-.085c-.408-.105-1.646-.423-1.436-1.712.16-.977.846-1.482 1.88-1.385.568.054 1.136.102 1.703.15 1.206.104 2.453.21 3.676.365 1.398.176 2.169.274 2.52.751.35.475.221 1.196-.036 2.634a187.712 187.712 0 0 1-1.022 5.185c-.128.612-.43 1.1-.854 1.372a1.424 1.424 0 0 1-1.107.197c-.868-.193-1.34-1.053-1.173-2.14.053-.348.13-.696.203-1.031l.066-.299c.06-.287.125-.573.21-.946l.03-.133-.074.042c-.265.155-.457.265-.645.387-4.41 2.832-9.444 4.266-14.565 4.148-5.119-.116-10.082-1.78-14.354-4.812-9.01-6.394-12.855-18.152-9.348-28.593z"/></g></g></svg>