<svg xmlns="http://www.w3.org/2000/svg" width="101" height="102" viewBox="0 0 101 102"><g><g><path fill="#3652e4" d="M28.174 37.7c.383-1.536.744-3.25 1.254-4.917.26-.852.039-1.365-.572-1.923-1.004-.917-1.94-1.91-2.902-2.875-1.318-1.322-1.342-1.82-.044-3.209 1.222-1.305 2.527-2.536 3.71-3.874.319-.359.528-1.023.448-1.489-.315-1.834-.762-3.647-1.167-5.466-.37-1.664-.054-2.185 1.602-2.57 1.249-.29 2.496-.593 3.753-.84.689-.136 1.06-.412 1.203-1.17.25-1.332.647-2.637 1.001-3.95.36-1.327.97-1.73 2.319-1.423a96.98 96.98 0 0 1 4.627 1.194c.67.188 1.153.115 1.64-.455 1.01-1.18 2.09-2.303 3.163-3.429.946-.992 1.719-1 2.703-.062 1.406 1.342 2.777 2.724 4.23 4.012.336.297.978.462 1.424.383 1.796-.32 3.571-.757 5.353-1.154 1.576-.35 2.228.04 2.62 1.627.289 1.17.618 2.337.781 3.526.14 1.014.634 1.455 1.6 1.636 1.181.224 2.345.552 3.504.878 1.542.433 1.91 1.122 1.502 2.7-.37 1.427-.728 2.858-1.126 4.278-.208.741-.134 1.314.492 1.87 1.132 1.007 2.186 2.1 3.273 3.16 1.178 1.148 1.183 1.715.011 2.919-1.247 1.283-2.483 2.577-3.757 3.833-.557.549-.715 1.091-.512 1.873.468 1.803.832 3.634 1.235 5.453.302 1.362-.072 1.977-1.422 2.297-1.36.322-2.743.568-4.08.97-.413.124-.886.585-1.021.996-.45 1.361-.734 2.776-1.13 4.157-.352 1.227-1.067 1.617-2.296 1.309-1.583-.396-3.151-.858-4.748-1.181-.426-.087-1.062.091-1.381.386-1.197 1.11-2.294 2.324-3.445 3.483-.952.958-1.751.966-2.7.054-1.345-1.294-2.717-2.562-4.015-3.902-.57-.588-1.121-.685-1.876-.494-1.657.42-3.332.77-5 1.144-1.681.377-2.41-.094-2.768-1.742-.272-1.253-.65-2.487-.844-3.75-.12-.775-.518-1.022-1.186-1.184a73.384 73.384 0 0 1-4.163-1.117c-1.01-.308-1.347-.847-1.293-1.961zM50.327 4.352c-1.546 1.43-2.774 2.509-3.935 3.657-.712.704-1.43.937-2.418.643-1.546-.461-3.127-.805-4.763-1.216-.35 1.29-.773 2.43-.95 3.609-.231 1.537-1.115 2.184-2.541 2.428-1.207.208-2.393.538-3.692.838.41 1.851.747 3.562 1.175 5.25.294 1.156.005 2.02-.89 2.8-1.285 1.12-2.5 2.32-3.683 3.428 1.198 1.246 2.284 2.462 3.468 3.574.792.744.943 1.54.672 2.527-.351 1.272-.643 2.562-1.008 3.83-.197.684-.02.98.696 1.127 1.14.234 2.302.478 3.368.923.594.248 1.248.822 1.463 1.403.456 1.227.692 2.547.919 3.846.13.749.47.879 1.125.723 1.476-.35 2.975-.613 4.432-1.027 1.076-.305 1.846-.047 2.612.737 1.317 1.35 2.718 2.615 4.211 4.037 1.212-1.256 2.332-2.388 3.417-3.553.682-.732 1.408-.948 2.405-.642 1.546.474 3.134.809 4.795 1.225.322-1.327.64-2.521.894-3.728.228-1.085.829-1.672 1.937-1.875 1.433-.263 2.844-.64 4.333-.982-.417-1.876-.734-3.596-1.195-5.278-.31-1.135.032-1.934.816-2.714 1.292-1.285 2.53-2.622 3.843-3.992-1.184-1.186-2.263-2.353-3.439-3.414-.869-.785-1.068-1.622-.748-2.715.435-1.485.783-2.995 1.194-4.592-1.317-.355-2.53-.786-3.78-.99-1.452-.239-2.02-1.11-2.257-2.426-.232-1.29-.543-2.564-.838-3.932-1.875.414-3.622.758-5.345 1.194-1.115.282-1.972 0-2.722-.832-1.221-1.352-2.464-2.687-3.57-3.89zM45.587 82.6c-6.37-4.327-6.731-11.621-2.64-16.11 4.136-4.538 11.219-4.55 15.354-.058 3.868 4.204 4.158 11.507-2.462 16.065 1.255.096 2.385.159 3.51.272 4.377.438 8.937 4.595 9.282 10.486.127 2.172.029 4.356.042 6.535.006.991-.485 1.522-1.458 1.61-.426.038-.854.059-1.282.059-10.16.003-20.322.005-30.483-.004-.541 0-1.143.043-1.606-.17-.42-.195-.973-.711-.98-1.093-.048-2.953-.3-5.955.126-8.852.753-5.124 5.241-8.674 10.446-8.74.609-.006 1.218 0 2.15 0zm19.719 15.655c0-1.852.105-3.605-.021-5.34-.292-4.003-3.364-6.978-7.345-7.04a470.955 470.955 0 0 0-15.065.012c-3.414.056-6.39 2.446-6.942 5.82-.345 2.106-.064 4.313-.064 6.548h29.437zM50.468 80.732c3.98.002 7.342-3.316 7.34-7.246 0-4.026-3.378-7.444-7.33-7.42-3.928.024-7.357 3.375-7.336 7.166.024 4.222 3.222 7.496 7.326 7.5zM20.616 85.33c6.027.889 9.825 5.245 9.873 11.216.008 1.011.018 2.023-.004 3.035-.028 1.28-.511 1.813-1.753 1.815-8.99.014-17.98.007-26.97.008-.87 0-1.67-.282-1.653-1.246.042-2.398-.123-4.878.425-7.173C1.57 88.655 4.82 86.2 9.892 85.28c-4.446-4.74-4.8-9.793-.945-13.505 3.675-3.54 9.259-3.47 12.897.159 3.71 3.702 3.271 8.777-1.228 13.396zm6.63 12.973c0-.744.011-1.397-.001-2.049-.086-4.534-3.32-7.764-7.852-7.807a349.96 349.96 0 0 0-8.518.003c-5.254.076-8.8 4.673-7.58 9.853h23.952zM15.285 83.645c3.323.016 5.986-2.52 5.986-5.7-.001-3.225-2.605-5.84-5.851-5.876-3.28-.037-6.065 2.567-6.051 5.658.014 3.334 2.58 5.901 5.916 5.918zm65.244 1.647c-4.862-3.85-4.487-9.77-1.588-13.002 3.469-3.867 9.304-4.175 13.063-.7 4.01 3.708 3.71 8.885-.649 13.513 1.52.625 3.23 1.076 4.666 1.967 3.416 2.12 4.901 5.396 4.963 9.358a84.45 84.45 0 0 1 0 3.036c-.031 1.5-.47 1.935-1.986 1.937-5.1.01-10.201.004-15.302.004-3.7 0-7.398.004-11.097-.002-1.64-.003-2.11-.436-2.071-2.076.045-1.9-.111-3.869.334-5.682 1.207-4.912 4.636-7.514 9.667-8.353zm17.207 13.067c1.02-5.595-2.48-9.892-7.932-9.916-2.726-.011-5.452-.031-8.176.015-.885.015-1.795.13-2.643.373-2.68.77-5.617 3.35-5.431 8.176.04 1.051.27 1.384 1.36 1.376 6.735-.049 13.471-.024 20.207-.024h2.615zM85.787 72.067c-3.197.022-5.945 2.726-5.927 5.83.017 3.156 2.714 5.753 5.97 5.748 3.33-.006 5.946-2.533 5.934-5.732-.013-3.276-2.666-5.87-5.977-5.846zm-55.624-7.952c-1.836 1.691-3.519 3.23-5.188 4.783-.769.714-1.527 1.727-2.686 1.01-1.201-.74-.676-1.911-.323-2.947 2.527-7.427 5.058-14.854 7.588-22.281.088-.257.157-.522.266-.77.398-.905 1.302-1.382 2.07-1.014.846.41 1.14 1.119.831 2.04-1.174 3.496-2.35 6.993-3.52 10.49-.857 2.56-1.706 5.12-2.391 7.774 1.059-.963 2.109-1.936 3.179-2.887 1.408-1.252 2.631-.845 3.008 1.003.155.761.242 1.536.376 2.302.127.724.274 1.443.48 2.522.754-2.197 1.4-4.07 2.04-5.946 1.141-3.346 2.276-6.693 3.423-10.037.445-1.297 1.189-1.826 2.07-1.51.98.353 1.284 1.238.825 2.532-2.486 7.032-4.983 14.059-7.47 21.09-.274.774-.627 1.521-1.584 1.42-1.012-.106-1.541-.813-1.705-1.8-.412-2.491-.826-4.982-1.289-7.774zm37.062 1.446c.153-1.31.302-2.62.46-3.93.093-.769.104-1.575 1-1.946.872-.362 1.487.09 2.103.596 1.08.888 2.164 1.771 3.474 2.842-.266-.72-.42-1.181-.604-1.631-2.226-5.465-4.457-10.928-6.683-16.393-.465-1.142-.263-1.817.655-2.244.9-.419 1.624-.1 2.086 1.035 3.167 7.807 6.314 15.62 9.471 23.431.31.764.293 1.45-.432 1.97-.74.53-1.284.246-1.932-.312-1.993-1.721-4.062-3.353-6.273-5.16-.276 2.502-.551 4.794-.777 7.092-.18 1.845-.54 2.55-1.54 2.661-1.493.167-1.737-1.05-2.14-2.03a5724.525 5724.525 0 0 1-8.288-20.266c-.183-.45-.445-1.068-.275-1.413.258-.524.862-1.213 1.322-1.215.536-.002 1.329.541 1.568 1.054 1.03 2.215 1.9 4.505 2.827 6.768l3.742 9.134c.078-.014.157-.03.236-.043zM35.51 26.029c-.255-7.822 6.274-14.595 14.304-14.84 8.01-.245 14.807 6.173 15.046 14.205.24 8.064-6.07 14.923-13.944 15.157-8.558.255-15.127-5.937-15.406-14.522zm3.078-.15c.136 6.717 5.292 11.77 11.877 11.64 6.29-.125 11.444-5.448 11.349-11.722-.1-6.531-5.3-11.605-11.768-11.48-6.433.123-11.585 5.322-11.458 11.562zm9.474 3.053l7.089-7.628c.185-.199.357-.414.559-.594.68-.613 1.4-.674 2.073-.02.656.638.732 1.393.1 2.076a895.635 895.635 0 0 1-8.85 9.464c-.825.867-1.642.8-2.39-.158-1.532-1.962-3.012-3.964-4.484-5.971-.57-.776-.477-1.606.289-2.162.777-.566 1.591-.326 2.162.404 1.147 1.467 2.242 2.974 3.452 4.589z"/></g></g></svg>