<svg xmlns="http://www.w3.org/2000/svg" width="57" height="100" viewBox="0 0 57 100"><g><g><path fill="#3652e4" d="M56.933 57.222c.159.56.005 1.229-.422 1.835a3289.983 3289.983 0 0 1-6.577 9.29l-2.32 3.27-2.79 3.938a2700.066 2700.066 0 0 1-9.249 13.004c-.574.802-.826 1.612-.816 2.628l.005.439c.016 1.184.032 2.41-.23 3.533-.671 2.878-3.028 4.726-6.152 4.82a80.875 80.875 0 0 1-4.012.003c-1.415-.028-2.112-.73-2.129-2.148-.011-.951-.008-1.92-.005-2.856.004-1.355.009-2.756-.03-4.135-.02-.652-.273-1.378-.645-1.851-4.194-5.328-8.484-10.725-12.632-15.944L5.72 69.01c-.081-.103-.164-.204-.247-.306-.219-.268-.445-.545-.635-.832-.626-.945-.497-1.96.328-2.588.355-.27.741-.401 1.122-.401.526 0 1.04.253 1.437.746a792.809 792.809 0 0 1 4.598 5.77c.75.948 1.5 1.894 2.251 2.84l2.244 2.822c2.653 3.34 5.398 6.794 8.12 10.173.69.857.984 1.696.953 2.722-.043 1.372-.034 2.772-.025 4.127.004.584.008 1.169.008 1.757 0 .102.065.192.161.224.078.025.13.043.166.056.064.022.103.036.155.04 1.755.126 3.164.156 3.988-.683.654-.664.879-1.802.73-3.689-.167-2.095.402-3.874 1.902-5.947 4.4-6.081 8.803-12.315 13.06-18.343a5182.47 5182.47 0 0 1 4.513-6.384c.14-.198.268-.397.429-.648.083-.13.174-.272.28-.434a.236.236 0 0 0-.195-.364H49.72c-3.697 0-7.393 0-11.09-.002-10.4-.003-21.151-.006-31.726.017h-.025c-2.846 0-4.84-1.088-6.095-3.328-1.02-1.82-1.038-4.039-.047-5.935 1.005-1.923 2.862-3.181 4.968-3.365.403-.036.812-.036 1.208-.036 14.309-.002 28.618-.003 42.927.004.484 0 .954.01 1.372.13.861.247 1.308.863 1.29 1.782-.016.898-.5 1.48-1.397 1.682-.468.105-.982.105-1.479.106h-.024l-21.456.004c-6.933 0-13.867.002-20.8.004-.485 0-1.049.008-1.598.106-1.153.207-1.93 1.096-2.026 2.323-.093 1.173.644 2.287 1.713 2.593.553.158 1.185.235 1.932.235 8.271.007 16.542.009 24.812.01 7.418.002 14.834.003 22.251.008.516 0 1.1 0 1.548.189.492.207.822.561.955 1.027zM11.23 10.716C11.224 4.936 16.07.046 21.817.038h.013c2.794 0 5.438 1.115 7.448 3.14 2.013 2.028 3.122 4.703 3.125 7.529.002 2.817-1.107 5.487-3.123 7.52-2.016 2.035-4.666 3.156-7.461 3.157h-.005c-5.829 0-10.576-4.785-10.583-10.668zm3.699-.035c-.009 1.8.752 3.603 2.087 4.946 1.31 1.317 3.054 2.069 4.794 2.069h.047c3.812-.03 6.904-3.17 6.89-6.998-.005-1.842-.74-3.585-2.068-4.907-1.312-1.307-3.025-2.024-4.828-2.024h-.065c-3.762.036-6.838 3.137-6.857 6.914zm21.085 17.212c-1.62-1.607-2.512-3.726-2.511-5.965.002-4.572 3.711-8.364 8.27-8.454l.154-.001c2.095 0 4.11.846 5.686 2.394 1.63 1.6 2.575 3.794 2.591 6.019.033 4.568-3.684 8.348-8.286 8.425-2.19.037-4.295-.821-5.904-2.418zm1.198-5.853c.038 2.541 2.067 4.54 4.619 4.55h.018c1.26 0 2.44-.5 3.325-1.408a4.637 4.637 0 0 0 1.325-3.36c-.056-2.61-2.123-4.629-4.708-4.606-1.265.014-2.427.502-3.27 1.374-.864.894-1.328 2.119-1.309 3.45zm-13.12 11.272a6.017 6.017 0 0 1 4.317-1.877h.082c3.36 0 6.027 2.627 6.089 6.015.062 3.43-2.627 6.276-5.995 6.346-3.297.07-6.078-2.651-6.174-6.062a6.11 6.11 0 0 1 1.681-4.422zm2.583 5.891a2.418 2.418 0 0 0 1.825.837c1.295 0 2.32-.962 2.41-2.293a2.476 2.476 0 0 0-.612-1.772 2.427 2.427 0 0 0-1.651-.844c-1.292-.085-2.462.975-2.564 2.314a2.39 2.39 0 0 0 .592 1.758z"/></g></g></svg>