<svg xmlns="http://www.w3.org/2000/svg" width="100" height="101" viewBox="0 0 100 101"><g><g><path fill="#3652e4" d="M99.865 86.274c-.159 3.831-1.817 7.386-4.67 10.01-2.831 2.604-6.465 3.948-10.226 3.783-7.518-.327-13.438-6.155-13.771-13.555-.192-4.26-.178-8.638.04-13.011.271-5.444 4.918-10.822 10.58-12.243.373-.094.757-.177 1.163-.265.204-.044.416-.09.639-.14a.237.237 0 0 0 .183-.25 46.051 46.051 0 0 1-.103-1.718c-.06-1.245-.121-2.534-.413-3.75-.943-3.927-3.532-6.41-7.49-7.184a10.799 10.799 0 0 0-2.073-.209c-3.05 0-5.636 1.449-7.703 4.323-1.122 1.56-1.668 3.456-1.668 5.796v22.918c.001 6.31-2.351 11.415-6.99 15.17-3.72 3.012-8.045 4.375-12.854 4.054-3.209-.215-6.165-1.205-8.786-2.943-4.502-2.984-7.261-7.155-8.202-12.394-.21-1.174-.32-2.45-.333-3.9-.03-3.12-.024-6.292-.02-9.36.002-1.199.004-2.397.004-3.596v-1.013a.235.235 0 0 0-.213-.235c-9.446-.912-16.852-5.195-22.012-12.73C1.226 48.397-.41 42.268.086 35.613c1.07-14.372 12.34-25.625 26.8-26.758a.235.235 0 0 0 .217-.235v-4.6a.236.236 0 0 0-.236-.236h-5.874v-.01a1.838 1.838 0 0 1 0-3.66V.106h16.125v.009c.926.082 1.652.86 1.652 1.81a1.817 1.817 0 0 1-2.03 1.803h-5.538a.236.236 0 0 0-.236.236v4.688c0 .121.091.222.21.235 9.079.983 16.255 5.142 21.33 12.362 3.815 5.428 5.532 11.564 5.103 18.238-.924 14.394-12.05 25.76-26.455 27.024a.236.236 0 0 0-.215.224c-.003.083-.008.167-.014.252-.01.19-.022.387-.022.586-.001 1.292-.003 2.583-.006 3.874-.006 3.18-.013 6.469.01 9.704.046 6.282 2.952 10.934 8.637 13.826 4.95 2.517 11.635 1.572 15.899-2.248 3.518-3.153 5.217-7.007 5.192-11.782-.038-7.195-.022-14.51-.008-21.584l.003-1.334c.005-2.56.407-4.538 1.262-6.222 2.334-4.594 5.983-7.179 10.845-7.682 6.024-.624 11.588 2.895 13.842 8.757.665 1.73 1.087 6.32.696 7.558a.237.237 0 0 0 .15.295c.421.141.854.271 1.273.397.896.27 1.824.55 2.668.946 5.36 2.52 8.22 6.783 8.5 12.673.17 3.607.17 7.376-.001 11.523zM28.789 62.842c6.713 0 13.016-2.591 17.754-7.301 4.754-4.726 7.379-11.035 7.392-17.765.013-6.74-2.584-13.072-7.312-17.827-4.728-4.756-11.035-7.38-17.76-7.39h-.035c-13.806 0-25.059 11.242-25.09 25.075-.031 13.864 11.177 25.173 24.984 25.208h.067zM96.192 75.53c-.031-2.495-.602-4.534-1.745-6.231-3.33-4.947-9.804-6.304-14.736-3.09-3.012 1.962-4.666 4.744-4.783 8.044-.125 3.515-.126 7.092-.126 10.55v.381c0 2.765.719 5.019 2.198 6.893 2.242 2.84 5.016 4.233 8.446 4.233.514 0 1.043-.031 1.587-.093 4.477-.514 8.662-4.74 8.957-9.046.106-1.558.206-6.68.206-6.79 0-.498.001-.995.003-1.493.003-1.1.007-2.239-.007-3.358zm-52.02-51.544c0 .558-.246 1.056-.635 1.395-.102.111-.205.223-.315.333l-.904.908c-2.427 2.435-4.936 4.95-7.418 7.41-.49.486-.584.885-.361 1.526.88 2.527.005 5.278-2.178 6.846a6.023 6.023 0 0 1-7.187-.098c-2.095-1.59-2.916-4.433-1.996-6.911a6.017 6.017 0 0 1 6.015-3.931c.45.025.963.068 1.367.262.907.434 1.446 0 1.92-.482 2.391-2.43 4.845-4.886 7.22-7.26l1.362-1.364.008.007c.33-.305.769-.493 1.253-.493 1.021 0 1.85.83 1.85 1.852zM31.17 37.555a2.312 2.312 0 0 0-2.25-2.369 2.337 2.337 0 0 0-1.709.657 2.283 2.283 0 0 0-.7 1.64 2.329 2.329 0 0 0 2.292 2.329h.034a2.34 2.34 0 0 0 2.332-2.258zm-3.795-17.472v-1.201c0-1 .817-1.818 1.815-1.818.999 0 1.816.818 1.816 1.818v1.2c0 1.001-.817 1.818-1.816 1.818a1.821 1.821 0 0 1-1.815-1.817zm3.63 35.64v1.2c0 1-.816 1.818-1.815 1.818a1.821 1.821 0 0 1-1.815-1.817v-1.201c0-1 .817-1.818 1.815-1.818.999 0 1.816.818 1.816 1.818zM11.832 37.1v1.201c0 1-.817 1.818-1.815 1.818A1.822 1.822 0 0 1 8.2 38.301v-1.2c0-1 .817-1.819 1.815-1.819s1.815.818 1.815 1.818zm35.812 3.02a1.822 1.822 0 0 1-1.815-1.819v-1.2c0-1 .817-1.819 1.815-1.819.999 0 1.815.818 1.815 1.818v1.201c0 1-.816 1.818-1.815 1.818zM87.33 71.984v2.995c0 1-.817 1.817-1.816 1.817a1.822 1.822 0 0 1-1.815-1.817v-2.995c0-1 .817-1.817 1.815-1.817.999 0 1.816.817 1.816 1.817z"/></g></g></svg>