<svg xmlns="http://www.w3.org/2000/svg" width="100" height="101" viewBox="0 0 100 101"><g><g><path fill="#3652e4" d="M49.965 100.145c-14.476 0-28.953.006-43.429-.005-2.61-.002-4.589-1.2-5.755-3.509-1.178-2.332-1.062-4.712.609-6.764.733-.9 1.85-1.516 2.861-2.149.404-.254.641-.402.66-.927.145-4.305 3.28-8.047 7.512-8.947.678-.144 1.112-.43 1.488-1.008 11.35-17.43 22.718-34.848 34.062-52.282a2.953 2.953 0 0 0 .44-1.52c.029-6.891.012-13.781.035-20.672.002-.523.087-1.137.368-1.548.513-.747 1.287-.708 2.098-.38 3.752 1.515 7.514 3.003 11.272 4.5 1.45.579 2.895 1.167 4.35 1.73.754.291 1.216.8 1.22 1.614.005.83-.503 1.291-1.245 1.586-4.675 1.855-9.336 3.742-14.021 5.569-.696.27-.882.624-.868 1.326.044 2.14-.004 4.284.033 6.426.008.432.14.923.373 1.282A28986.74 28986.74 0 0 0 86.274 76.94c.249.381.748.732 1.19.833 4.237.96 7.217 4.256 7.618 8.592.072.782.31 1.173 1.082 1.472 2.684 1.038 4.29 4.207 3.722 7.123-.573 2.947-3.216 5.172-6.231 5.18-6.573.018-13.145.005-19.717.005H49.965zm14.806-3.25c-.735-3.579.801-5.77 4.396-6.437.227-.042.48-.355.58-.6.515-1.272 1.25-2.407 2.461-3.046 1.148-.607 2.416-.987 3.784-1.527.8-3.632 3.213-6.12 7.02-7.379L66.126 51.993c-.223.397-.367.645-.505.896-2.48 4.544-4.963 9.086-7.43 13.636-.409.753-.885 1.416-1.825 1.367-.959-.05-1.321-.79-1.605-1.595-1.162-3.298-2.34-6.59-3.516-9.884-.98-2.745-1.967-5.488-2.995-8.353-.19.405-.329.688-.459.975-1.915 4.21-3.832 8.418-5.74 12.63-.323.716-.694 1.338-1.596 1.384-.895.046-1.344-.502-1.736-1.198-1.577-2.796-3.173-5.58-4.764-8.37-.136-.238-.282-.47-.473-.787a715740 715740 0 0 0-16.408 25.19c.1.06.147.1.2.117 3.538 1.184 5.813 3.544 6.752 7.183.052.202.422.426.667.457 2.712.343 4.592 1.736 5.626 4.286.099.244.457.511.72.54 2.946.337 4.915 2.887 4.396 5.751-.038.213-.084.425-.134.678h29.47zm-24.57-38.98c2.237-4.92 4.407-9.678 6.562-14.444.347-.768.805-1.354 1.726-1.33.94.023 1.318.666 1.6 1.459 1.828 5.146 3.675 10.285 5.517 15.427.373 1.04.75 2.077 1.15 3.187.142-.159.211-.211.25-.281 2.291-4.185 4.59-8.366 6.848-12.568.13-.242.05-.727-.115-.98-4.407-6.798-8.838-13.578-13.267-20.36-.13-.2-.289-.38-.478-.625-4.787 7.346-9.51 14.591-14.218 21.846-.127.197-.187.575-.083.76 1.452 2.595 2.939 5.17 4.508 7.908zM18.428 96.921v.004c3.991 0 7.983-.003 11.975.002.783 0 1.426-.222 1.756-1 .266-.627.152-1.195-.315-1.677-.579-.596-1.247-.611-1.992-.316-1.445.572-2.375-.08-2.403-1.65-.042-2.41-1.889-3.835-4.204-3.243-1.35.345-2.199-.31-2.23-1.708-.033-1.453-.417-2.794-1.315-3.96-1.816-2.355-4.865-3.17-7.622-2.045-2.732 1.115-4.239 3.822-3.87 6.953.18 1.538-.32 2.06-1.882 2.227a4.017 4.017 0 0 0-1.817.687c-1.096.777-1.462 2.21-1.044 3.494.43 1.32 1.588 2.22 2.988 2.226 3.991.018 7.983.006 11.975.006zm63.169.003c3.963 0 7.926.01 11.89-.006 1.802-.006 3.243-1.404 3.288-3.127.047-1.76-1.295-3.186-3.107-3.304-1.5-.099-2.027-.767-1.796-2.28.409-2.684-1.08-5.539-3.496-6.7-4.395-2.114-9.266.933-9.31 5.822-.011 1.368-.91 2.055-2.24 1.713-2.362-.607-4.177.825-4.187 3.303-.006 1.42-1.001 2.122-2.318 1.638-.19-.07-.374-.16-.57-.202-.934-.195-1.795.365-1.954 1.257-.16.897.451 1.728 1.391 1.862.284.04.578.024.867.024h11.542zM51.67 12.302l10.134-4.03L51.67 4.213v8.089zM20.624 2.868c1.13-1.347 2.444-2.27 4.16-2.568 2.861-.498 5.667.988 6.954 3.734 1.185 2.528.496 5.718-1.729 7.458-.708.555-.965 1.084-.975 1.984-.037 3.215-2.838 5.99-6.12 6.024-5.558.057-11.117.06-16.676 0-3.35-.037-6.051-2.82-6.182-6.188-.127-3.272 2.383-6.196 5.682-6.573.635-.073.976-.258 1.191-.944 1.69-5.388 8.308-7.341 12.698-3.78.312.253.612.523.997.853zm-6.011 13.436c2.634 0 5.269-.002 7.903.001 1.379.002 2.408-.608 3.003-1.833.565-1.164.444-2.317-.376-3.34-.885-1.104-2.033-1.455-3.409-1.105-1.507.383-2.318-.256-2.36-1.833-.07-2.71-2.189-4.8-4.835-4.773-2.652.03-4.727 2.135-4.775 4.847-.025 1.454-.88 2.15-2.258 1.78-1.408-.378-2.596-.058-3.5 1.07-.808 1.011-.94 2.17-.375 3.343.631 1.31 1.722 1.864 3.166 1.85 2.605-.024 5.21-.006 7.816-.007zm8.104-9.668c2.09.07 3.726.993 5.018 2.51 1.25-.908 1.651-2.371 1.08-3.733A3.2 3.2 0 0 0 25.3 3.5c-1.513.265-2.518 1.434-2.583 3.137zm62.784 12.928c-2.633 0-5.267.02-7.9-.005-2.737-.026-4.817-1.236-5.982-3.72-1.113-2.373-.841-4.7.804-6.769 1.105-1.388 2.575-2.233 4.377-2.364.57-.041.832-.233 1.006-.806A8.05 8.05 0 0 1 85.471.182c3.454-.02 6.593 2.254 7.65 5.615.196.626.481.839 1.12.912 3.323.383 5.73 3.103 5.756 6.428.026 3.212-2.401 6.047-5.734 6.317-2.732.223-5.493.088-8.241.11H85.5zm-.092-3.252c2.747 0 5.495.03 8.241-.013 1.328-.021 2.307-.71 2.843-1.931.541-1.232.326-2.397-.552-3.39-.852-.96-1.929-1.323-3.207-.956-1.548.445-2.338-.158-2.394-1.813-.113-3.317-3.33-5.592-6.384-4.514-2.063.73-3.275 2.455-3.297 4.696-.014 1.363-.922 2.037-2.242 1.674-.277-.076-.56-.157-.844-.173-1.733-.102-3.274 1.305-3.353 3.046-.08 1.787 1.328 3.346 3.12 3.367 2.69.031 5.38.008 8.069.007z"/></g></g></svg>