<svg xmlns="http://www.w3.org/2000/svg" width="70" height="60" viewBox="0 0 70 60"><g><g><path fill="#54cff0" d="M69.683 24.837c0 6.472.002 13.166-.004 19.75-.002 3.072-1.755 5.454-4.466 6.067-.899.204-1.853.193-2.777.183-.23-.002-.458-.004-.688-.004-.47.002-.663.132-.894.604-.379.775-.817 1.534-1.24 2.268a54.27 54.27 0 0 0-.865 1.535c-.253.472-.414.94-.464 1.355-.045.374-.037.766-.029 1.145.007.298.013.604-.005.907-.058.942-.518 1.383-1.45 1.385a2004.614 2004.614 0 0 1-12.254 0c-.915-.002-1.38-.438-1.464-1.371l-.004-.033a.84.84 0 0 1 .002-.256c.36-1.738-.24-3.13-1.941-4.519-.8-.652-1.513-1.431-2.202-2.185l-.254-.278c-.363-.394-.753-.556-1.334-.554-4.468.008-9.012.008-13.405.008-5.5 0-11.185 0-16.777.015h-.027c-2.349 0-4.017-.764-5.102-2.336-.437-.634-.698-1.394-.951-2.128-.084-.245-.172-.499-.263-.741-.082-.215-.074-.452-.066-.68.002-.065.004-.128.004-.19l-.002-8.99C.758 26.05.755 15.975.77 6.067.774 2.465 3.327.038 7.122.026 11.171.016 15.287.02 19.268.021l5.125.001h10.856l7.36.001C49.36.025 56.343.026 63.21.017h.017c2.282 0 3.99.761 5.224 2.33.839 1.066 1.243 2.327 1.237 3.855-.012 2.657-.01 5.357-.008 7.97l.002 3.173zm-7.996 16.246c-.002 1.708-.002 3.416-.002 5.161V48.3l.491.001c.446.002.867.004 1.292-.003 2.27-.033 3.628-1.412 3.632-3.688.008-5.056.005-10.196.002-15.167l-.002-2.334a1.9 1.9 0 0 0-.015-.22c-.642 1.26-1.525 1.924-2.75 2.078-1.585.198-2.838-.434-3.731-1.88a592.393 592.393 0 0 0-.045 10.41c.001.16.063.342.144.424.91.93.985 2.12.984 3.162zm3.103-15.605c.017-.555-.349-.967-.89-1a.973.973 0 0 0-.733.242.966.966 0 0 0-.307.689.95.95 0 0 0 .899 1.002.973.973 0 0 0 .728-.24.967.967 0 0 0 .303-.693zm2.287-19.76c-.045-1.452-.985-2.66-2.234-2.875-.983-.168-1.973-.199-3.021-.232-.403-.013-.817-.026-1.231-.048v21.19c.813-1.25 1.871-1.862 3.221-1.87h.026c1.375 0 2.423.613 3.265 1.92v-4.048-9.589c0-.37 0-.74.002-1.11.003-1.095.007-2.227-.028-3.338zM3.347 44.792c.01 1.954 1.133 3.24 3.008 3.44.806.085 1.614.064 2.469.041.336-.008.682-.017 1.03-.02V2.627l-.76-.001h-.872l-1.04.001C4.565 2.64 3.345 3.864 3.344 6.48v27.083l-.002 3.214c-.002 2.627-.004 5.343.007 8.015zm53.344 8.862c1.312-1.39 2.062-2.952 2.169-4.52.16-2.327.178-4.707.196-7.008.005-.598.01-1.197.017-1.796.006-.547-.337-.906-.895-.935-.593-.031-.95.274-1.033.883-.12.878-.588 1.36-1.318 1.36h-.01c-.735-.004-1.204-.488-1.319-1.365-.074-.57-.414-.883-.955-.883h-.01c-.554.004-.898.317-.968.88-.11.881-.578 1.365-1.32 1.365h-.002c-.742-.001-1.21-.484-1.32-1.362-.07-.56-.422-.882-.968-.883h-.002c-.544 0-.897.321-.97.881-.115.892-.599 1.367-1.399 1.372h-.008a1.04 1.04 0 0 1-.752-.3c-.296-.295-.453-.787-.454-1.421-.003-1.383-.003-2.766-.002-4.148v-1.961c0-.54 0-1.08.002-1.619.001-1.417.003-2.883-.008-4.323-.005-.688-.371-1.1-.98-1.102h-.003c-.59 0-.968.41-1.01 1.099-.01.17-.009.346-.007.516l.002.218v16.59c0 .082-.001.163-.003.244-.002.162-.005.33.004.49.046.762-.275 1.273-.858 1.368-.466.075-1.091-.095-1.425-.388-.587-.514-1.14-1.081-1.674-1.63a44.894 44.894 0 0 0-1.028-1.034c-.537-.519-1.15-.552-1.637-.09-.482.458-.461 1.13.053 1.712.084.095.173.182.268.273l.132.131c.673.676 1.342 1.358 2.01 2.04 1.613 1.641 3.28 3.34 4.98 4.944 1.256 1.183 1.697 2.274 1.475 3.647-.018.116 0 .244.021.392l.015.11h9.993c.001-.084.004-.163.006-.24a4.43 4.43 0 0 0-.012-.657c-.13-1.078.19-1.984 1.007-2.85zM40.793 32.038c.013-.41-.105-.642-.451-.885a6.956 6.956 0 0 1-2.89-4.62 6.951 6.951 0 0 1 1.299-5.282c1.717-2.314 4.147-3.24 7.028-2.678 2.914.569 4.79 2.44 5.423 5.41.615 2.881-.314 5.295-2.762 7.175-.368.282-.455.45-.464.54-.046.498-.04 1.014-.031 1.61.002.178.005.364.006.56.28-.195.552-.374.817-.55.684-.451 1.275-.841 1.77-1.34 2.817-2.832 3.587-6.203 2.226-9.75-1.419-3.7-4.26-5.696-8.215-5.773a476.71 476.71 0 0 0-9.313-.088c-3.171 0-6.403.029-9.673.088-2.352.043-4.634 1.142-6.26 3.016-1.68 1.935-2.475 4.448-2.183 6.895.567 4.737 4.262 8.071 8.987 8.108 3.34.026 6.738.02 10.023.013 1.373-.002 2.745-.005 4.118-.006.117 0 .237-.007.39-.016l.148-.01c0-.225-.002-.445-.003-.661-.004-.607-.007-1.18.01-1.756zm-.02-4.164c.396-2.402 1.666-3.718 3.596-3.718h.031c1.951.015 3.182 1.32 3.573 3.782a4.331 4.331 0 0 0-.753-5.871c-.934-.78-2.09-1.15-3.25-1.04-1.198.115-2.304.724-3.115 1.717-1.174 1.435-1.184 3.964-.082 5.13zM57.902 2.68H12.537v45.567h22.727a29.372 29.372 0 0 0-.383-.673c-.391-.673-.796-1.37-1.019-2.12-.353-1.188.083-2.432 1.136-3.245a5.094 5.094 0 0 1 2.193-.952c1.509-.256 2.587.635 3.543 1.657v-5.856h-.795c-1.203 0-2.407 0-3.61.002-3.266.004-6.642.009-9.963-.019-1.188-.009-2.209-.124-3.121-.353-5.734-1.435-9.37-6.823-8.647-12.81.331-2.737 1.676-5.27 3.786-7.135A11.594 11.594 0 0 1 26 13.822l.296-.001c6.024-.031 12.252-.063 18.377.014 3.754.048 7.135 1.887 9.275 5.048 2.128 3.141 2.603 7.113 1.27 10.624-1.217 3.209-3.498 5.505-6.778 6.823-.222.09-.431.173-.479.305-.023.065-.011.156.037.269 1.152-.32 2.24-.087 3.234.696 1.523-1.13 3.065-1.138 4.583-.022.092-.056.18-.112.267-.166.243-.155.473-.3.725-.4.273-.109.563-.17.844-.23.083-.018.167-.035.25-.054zM31.618 26.736v-.004c-.178 0-.355.003-.533.005-.222.002-.448.004-.674.004a20.1 20.1 0 0 1-.87-.016c-.434-.02-.786-.169-1.02-.43-.21-.237-.309-.553-.284-.913.053-.777.526-1.209 1.33-1.216 1.41-.01 2.912-.02 4.43.003.825.011 1.374.529 1.367 1.287-.007.733-.537 1.223-1.382 1.277-.048.004-.098.003-.146.003zm4.885-5.907c.01.747-.532 1.277-1.348 1.319-.38.019-.766.014-1.138.01a35.185 35.185 0 0 0-1.01 0c-.169.003-.34.005-.514.005-.21 0-.423-.004-.634-.015-.825-.044-1.35-.562-1.337-1.321.013-.772.531-1.24 1.387-1.253 1.062-.016 2.14-.016 3.204 0 .847.013 1.379.494 1.39 1.255zm-5.724 9.296c-.049.698-.497 1.139-1.198 1.178-.287.017-.578.012-.86.008l-.26-.003-.12.002c-.118 0-.236.002-.355.004-.117.002-.237.003-.358.003-.147 0-.296-.002-.444-.01-.755-.042-1.206-.488-1.238-1.223-.032-.757.409-1.262 1.151-1.316a15.993 15.993 0 0 1 2.564.007c.733.063 1.171.593 1.118 1.35zm-4.571-4.7c.013.673-.366 1.143-1.016 1.255a4.8 4.8 0 0 1-.819.064c-.211 0-.416-.01-.606-.023-.4-.025-.75-.187-.984-.455a1.167 1.167 0 0 1-.283-.856c.054-.768.522-1.21 1.317-1.245.136-.006.271-.004.403-.003h.046v-.006l.141-.005c.075.004.151.005.227.006.173.003.352.006.529.04.65.12 1.031.568 1.045 1.228zm-1.405-4.716c.073-.676.52-1.09 1.224-1.133.154-.01.309-.007.459-.005.126.003.253.003.38 0 .13-.002.267-.004.403.005.743.05 1.19.498 1.226 1.23.034.686-.384 1.196-1.064 1.3-.266.04-.535.06-.8.06-.268 0-.532-.02-.784-.063-.724-.12-1.124-.654-1.044-1.394zm11.63 9.454c-.04.393-.48.754-.951 1.085a.59.59 0 0 1-.346.09c-.093 0-.19-.011-.286-.022-.091-.01-.177-.02-.254-.02H34.5l-.132.014c-.209.023-.423.048-.58-.065-.398-.288-.88-.636-.908-1.033-.032-.445.32-1.184.71-1.3a3.864 3.864 0 0 1 2.076-.019c.411.116.807.856.766 1.27zM5.731 26.358a1.303 1.303 0 0 1-.374-.94 1.265 1.265 0 0 1 1.223-1.262c.332-.01.66.117.909.353a1.303 1.303 0 0 1 .05 1.835c-.239.248-.565.385-.918.386h-.004c-.335 0-.65-.132-.886-.372z"/></g></g></svg>