<svg xmlns="http://www.w3.org/2000/svg" width="60" height="60" viewBox="0 0 60 60"><g><g><path fill="#3652e4" d="M53.177 15.3c-.254.968-.155 1.554.73 2.234 1.946 1.498 2.357 4.224 1.18 6.344-1.193 2.152-3.726 3.153-6.041 2.39-2.29-.755-3.733-3.03-3.452-5.469.04-.357.144-.708.23-1.117-1.962-1.372-3.954-2.739-5.913-4.152-.587-.424-1.094-.682-1.824-.316-.377.189-.872.137-1.382.202l-1.727 6.13c1.114.366 2.227.613 3.234 1.09 1.07.506 2.076 1.176 3.038 1.875.32.234.508.485.578.745h.006v.025a.897.897 0 0 1 0 .415v3.006c2.58.673 5.158 1.352 7.737 2.029.11.029.225.042.326.088.605.282 1.01.136 1.482-.393 1.112-1.248 2.922-1.44 4.401-.6a3.713 3.713 0 0 1 1.769 4.076c-.393 1.678-1.794 2.85-3.481 2.91-1.591.058-3.142-1.006-3.575-2.59-.172-.63-.472-.84-1.056-.982-2.297-.559-4.58-1.178-6.87-1.774-.212-.054-.428-.094-.733-.161v.811c0 2.71-.014 5.419.01 8.128.006.654-.218 1.118-.712 1.524-1.947 1.604-4.22 2.41-6.663 2.769-3.388.498-6.713.25-9.864-1.187-.972-.442-1.872-1.086-2.721-1.747-.317-.246-.554-.804-.557-1.222-.038-4.781-.039-9.562 0-14.343.003-.444.266-.94.538-1.316.283-.39.724-.661 1.158-1.04-.73-.44-1.43-.88-2.15-1.283-.108-.06-.36-.004-.459.09-1.956 1.89-4.26 2.31-6.858 1.649l-4.398 7.489c2.29 1.99 2.274 4.691.717 6.66.714.791 1.436 1.593 2.16 2.391.714.788 1.432 1.573 2.176 2.388 2.132-1.164 4.253-1.178 6.266.184 1.992 1.349 2.762 3.333 2.607 5.794l17.362 2.455c1.339-4.681 5.359-6.178 8.414-5.516 3.327.723 5.672 3.81 5.534 7.344-.126 3.242-2.745 6.12-5.925 6.593-3.202.475-7.073-1.304-8.08-5.936-2.056-.297-4.127-.6-6.199-.896-3.725-.533-7.452-1.051-11.174-1.604-.565-.084-.924.003-1.32.48-1.929 2.328-5.284 2.754-7.751 1.042-2.493-1.729-3.282-4.982-1.804-7.66.3-.543.228-.838-.175-1.262-1.297-1.361-2.536-2.778-3.825-4.146-.154-.164-.501-.267-.722-.22-2.533.531-5.024-1.171-5.386-3.712-.38-2.666 1.445-5.033 4.094-5.239.502-.039.746-.23.984-.64 1.395-2.415 2.818-4.814 4.251-7.252-2.684-2.43-3.445-6.233-1.197-9.41-1.33-1.454-2.62-2.881-3.94-4.28-.115-.12-.442-.11-.645-.058-1.521.381-2.829.024-3.842-1.182C.742 6.758.581 5.39 1.202 3.983c.634-1.436 1.779-2.216 3.348-2.24C7.098 1.705 8.9 4.247 8.027 6.65c-.157.43-.139.686.205.993.59.526 1.158 1.084 1.695 1.667.721.783 1.404 1.603 2.045 2.34 3.034-1.522 5.713-1.415 8.084.64 2.348 2.034 2.873 4.672 1.952 7.705 1.194.694 2.397 1.398 3.608 2.087.098.055.262.04.378.004a18.548 18.548 0 0 1 6.616-.808c.658-2.28 1.326-4.538 1.94-6.811.07-.257-.112-.636-.275-.897-1.13-1.815-.577-4.15 1.256-5.212 1.774-1.028 4.099-.34 5.065 1.496.553 1.05.548 2.13.132 3.247 2.08 1.446 4.134 2.882 6.207 4.29.14.096.436.036.625-.04.847-.337 1.667-.752 2.528-1.044.346-.117.525-.222.603-.586.417-1.932.844-3.862 1.3-5.785.085-.358-.012-.52-.281-.725C49.74 7.713 49.102 5.213 50.103 3 51.075.85 53.396-.348 55.745.09c2.27.421 3.98 2.438 4.072 4.804.095 2.456-1.405 4.56-3.745 5.197-.56.151-1.15.187-1.808.289-.348 1.607-.655 3.28-1.087 4.92zM5.807 5.563a1.235 1.235 0 0 0-1.22-1.271 1.235 1.235 0 0 0-1.269 1.222 1.263 1.263 0 0 0 1.227 1.274 1.229 1.229 0 0 0 1.262-1.225zm37.086 47.332c-.01 2.531 2.035 4.61 4.546 4.62 2.51.008 4.593-2.074 4.583-4.585-.01-2.543-2.048-4.618-4.546-4.63-2.493-.01-4.572 2.074-4.583 4.595zM13.91 48.2c.015 1.936 1.55 3.463 3.458 3.44 1.929-.023 3.407-1.546 3.393-3.496-.014-1.965-1.486-3.423-3.45-3.418-1.936.005-3.416 1.516-3.4 3.474zM8.58 35.327a2.043 2.043 0 0 0-2.017-2.11c-1.119-.012-2.08.955-2.069 2.079.011 1.096.942 2.032 2.037 2.046 1.097.016 2.02-.892 2.048-2.015zm11.46-17.862c-.013-2.438-1.935-4.378-4.344-4.385-2.415-.007-4.365 1.983-4.358 4.445.008 2.433 1.934 4.382 4.334 4.383 2.4 0 4.381-2.014 4.368-4.443zm32.772 15.562c.017.704.632 1.326 1.293 1.31.669-.018 1.242-.615 1.231-1.284-.01-.696-.644-1.294-1.33-1.256-.676.037-1.21.586-1.194 1.23zm-29.137-3.412c.02.201.219.43.397.56 1.403 1.022 3.01 1.525 4.694 1.79 2.999.472 5.932.262 8.747-.964.452-.196.908-.428 1.29-.734.175-.142.33-.344.444-.56v-1.732c-1.334.732-2.797 1.178-4.327 1.444-3.777.657-7.455.347-10.95-1.369-.076-.037-.162-.054-.314-.104 0 .591-.036 1.135.02 1.669zm1.449 6.156c.139.075.28.147.424.21 2.76 1.226 5.644 1.462 8.594 1.035 1.773-.256 3.474-.761 4.95-1.843.178-.13.376-.36.397-.56.055-.533.018-1.076.018-1.662-5.247 2.4-10.44 2.405-15.634.05-.32 1.727-.201 1.985 1.251 2.77zm14.383 2.124c-5.261 2.403-10.456 2.4-15.649.045-.268 1.787-.132 2.064 1.385 2.847.08.041.16.083.241.121 2.818 1.319 5.773 1.476 8.789 1.03 1.707-.253 3.337-.762 4.767-1.78.198-.14.42-.385.446-.605.065-.528.021-1.07.021-1.658zM24.644 25.54c3.577 2.364 11.017 2.339 13.944-.022-2.956-2.366-10.76-2.371-13.944.022zm14.004-13.96c.011-.658-.626-1.274-1.323-1.278-.698-.003-1.218.529-1.223 1.252-.005.753.539 1.343 1.23 1.334.673-.008 1.304-.636 1.316-1.308zm12.108 7.145c-1.474.005-2.602 1.15-2.606 2.645-.004 1.49 1.124 2.656 2.587 2.673 1.427.016 2.675-1.196 2.685-2.61.011-1.462-1.22-2.713-2.666-2.708zm4.015-10.908c1.43-.021 2.598-1.225 2.6-2.68a2.648 2.648 0 0 0-2.605-2.665c-1.483-.022-2.668 1.16-2.67 2.664 0 1.476 1.224 2.703 2.675 2.681z"/></g></g></svg>