<svg xmlns="http://www.w3.org/2000/svg" width="20" height="20" viewBox="0 0 20 20"><g><g><path fill="#3652e4" d="M0 9.983c.003-5.515 4.49-10 10.004-10C15.51-.017 20.012 4.49 20 9.993c-.01 5.513-4.523 10.012-10.019 9.991C4.471 19.964-.004 15.482 0 9.983zm18.299.15a8.285 8.285 0 0 0-8.156-8.447 8.279 8.279 0 0 0-8.44 8.159c-.08 4.584 3.566 8.362 8.14 8.438 4.604.075 8.381-3.565 8.456-8.15zm-9.89 1.678c.865-.87 1.71-1.723 2.556-2.573.864-.867 1.73-1.732 2.597-2.595.346-.345.722-.411 1.069-.203.492.295.592.877.192 1.288-.808.833-1.633 1.65-2.453 2.472l-3.282 3.284c-.478.478-.915.478-1.39 0l-2.526-2.533c-.246-.245-.295-.535-.182-.85a.813.813 0 0 1 .677-.558c.298-.046.538.084.743.288l1.78 1.772c.06.06.124.118.22.208z"/></g></g></svg>