<svg xmlns="http://www.w3.org/2000/svg" width="61" height="60" viewBox="0 0 61 60"><g><g><path fill="#54cff0" d="M60.903 46.175c-.008.806-.473 1.283-1.308 1.321-.829.038-1.661.028-2.491.01-.366-.007-.609.088-.688.472-.027.13-.055.277-.132.377-.694.91-.336 1.569.453 2.187.421.329.783.74 1.143 1.14.541.601.569 1.222.01 1.805a121.37 121.37 0 0 1-3.475 3.477c-.602.578-1.23.544-1.853-.043a43.046 43.046 0 0 1-1.714-1.714c-.274-.287-.518-.268-.892-.177-1.283.315-1.776 1.056-1.534 2.359.084.454.03.943-.016 1.41-.073.744-.551 1.173-1.295 1.186-.808.014-1.616.003-2.425.004-.785 0-1.571.008-2.357-.001-.9-.01-1.366-.46-1.388-1.366a50.55 50.55 0 0 1 0-2.426c.009-.365-.086-.61-.473-.686-.13-.027-.274-.06-.377-.137-.896-.665-1.566-.37-2.18.442-.31.408-.708.753-1.091 1.097-.656.59-1.295.633-1.92.037a98.298 98.298 0 0 1-3.428-3.43c-.581-.61-.562-1.224.009-1.86a28.968 28.968 0 0 1 1.704-1.724c.304-.287.29-.525.196-.932-.31-1.333-1.111-1.72-2.378-1.501-.413.072-.852.03-1.277-.003-.813-.064-1.286-.538-1.297-1.348-.022-1.595-.022-3.19-.002-4.785.01-.868.486-1.31 1.354-1.322a75.622 75.622 0 0 1 2.425.003c.395.008.645-.126.73-.526.023-.109.047-.23.11-.316.74-.992.297-1.69-.531-2.339-.386-.302-.718-.679-1.05-1.043-.518-.565-.57-1.203-.047-1.75a108.718 108.718 0 0 1 3.568-3.574c.568-.543 1.213-.485 1.8.075a40.28 40.28 0 0 1 1.71 1.719c.276.297.543.357.885.163.078-.044.155-.108.24-.12 1.302-.177 1.448-1.05 1.323-2.128-.054-.465-.025-.943-.002-1.414.04-.786.494-1.279 1.269-1.292 1.638-.026 3.278-.029 4.917.002.815.016 1.273.542 1.3 1.418.025.808-.023 1.619.028 2.424.014.222.22.533.419.624 1.559.706 1.563.69 2.779-.519.333-.333.66-.676 1.024-.974.563-.46 1.12-.507 1.642-.015a83.397 83.397 0 0 1 3.62 3.613c.553.59.458 1.215-.147 1.86a36.693 36.693 0 0 1-1.667 1.665c-.295.277-.253.511-.16.883.325 1.31 1.08 1.825 2.413 1.573.434-.082.897-.03 1.345-.007.712.036 1.17.49 1.178 1.208.017 1.64.016 3.279 0 4.918zm-2.525-3.681c-.919 0-1.723.004-2.527-.001-.912-.006-1.163-.22-1.484-1.07-.372-.981-.745-1.968-1.207-2.91-.343-.697-.26-1.24.27-1.761.176-.173.346-.353.52-.527 1.395-1.4 1.389-1.394-.076-2.73-.283-.258-.47-.256-.726.012-.496.52-1.015 1.018-1.523 1.526-.488.487-1.013.56-1.654.266a39.01 39.01 0 0 0-3.033-1.258c-.691-.25-1.026-.682-1.033-1.395-.005-.651-.043-1.306.007-1.954.046-.589-.19-.755-.73-.703-.357.034-.72.03-1.078 0-.505-.04-.74.103-.698.67.051.67.003 1.347.015 2.02.012.671-.291 1.076-.923 1.317a76.674 76.674 0 0 0-3.219 1.336c-.56.244-1.037.2-1.473-.245-.503-.513-1.034-1-1.522-1.526-.31-.334-.553-.396-.876-.023-.292.339-.616.655-.951.952-.327.291-.335.528-.008.83.478.44.928.913 1.386 1.376.703.709.73 1.009.304 1.905-.384.808-.76 1.624-1.06 2.464-.481 1.352-.544 1.429-1.951 1.429h-.405c-1.862 0-1.851 0-1.808 1.907.01.427.124.606.578.584a24.59 24.59 0 0 1 2.02-.001c.894.03 1.163.272 1.477 1.105.355.94.727 1.877 1.144 2.792.415.911.389 1.245-.321 1.978-.141.146-.286.287-.429.43-1.361 1.363-1.352 1.353.05 2.674.333.315.54.275.828-.033.475-.508.978-.99 1.478-1.476.49-.473 1.007-.548 1.653-.24.967.463 1.97.85 2.971 1.234.837.322 1.045.58 1.054 1.498.002.224 0 .45 0 .674 0 1.975 0 1.967 1.982 1.864.371-.02.519-.13.508-.515-.02-.718-.013-1.437.005-2.156.017-.676.332-1.101 1.01-1.335.949-.327 1.88-.72 2.788-1.15.995-.47 1.29-.456 2.079.325.567.563 1.132 1.128 1.61 1.605l1.92-1.831c-.607-.547-1.239-1.083-1.832-1.659-.681-.661-.69-.99-.296-1.854.418-.914.806-1.844 1.159-2.785.323-.861.599-1.116 1.517-1.146.673-.02 1.349.02 2.02-.023.17-.011.458-.222.468-.358.049-.668.022-1.34.022-2.108zM.933 8.224c0-1.438-.01-2.875.002-4.313C.956 1.599 2.53 0 4.837-.001a44589 44589 0 0 1 44.674 0c2.194 0 3.73 1.458 3.902 3.639.012.156.018.314.018.471v20.222c0 .106-.007.215-.015.332a1.262 1.262 0 1 1-2.447.03V10.026H.933v-1.8zm2.52-.773h47.481V4.437c0-1.6-.341-1.943-1.93-1.944l-43.643.001c-.246 0-.495-.002-.739.027-.715.086-1.13.45-1.156 1.167-.046 1.23-.013 2.463-.013 3.763zM24.341 27.5c-.266.002-.532 0-.89 0v4.065c0 .247.011.495-.008.74-.046.587-.205 1.118-.833 1.338-.606.212-1.09-.016-1.517-.446-1.409-1.416-2.898-2.762-4.206-4.266-.989-1.136-2.06-1.533-3.551-1.466-2.755.124-5.52.039-8.28.034-2.548-.004-4.117-1.568-4.122-4.108-.005-2.29-.007-4.58 0-6.87.008-2.457 1.533-3.985 3.999-3.988 6.51-.006 13.018-.007 19.527 0 2.423.004 3.954 1.536 3.967 3.953.012 2.312.007 4.624.002 6.937-.006 2.492-1.587 4.065-4.088 4.077zm1.563-10.95c-.005-1.14-.452-1.583-1.605-1.584-6.42-.004-12.84-.004-19.261 0-1.136.002-1.577.455-1.58 1.605-.008 2.224-.004 4.447-.002 6.67 0 1.384.354 1.73 1.77 1.73 3.367.001 6.734.013 10.102-.01.75-.005 1.328.215 1.85.762 1.158 1.216 2.36 2.392 3.58 3.62.103-.138.15-.171.15-.206.013-.875.01-1.75.03-2.626.021-1.045.487-1.512 1.534-1.536.65-.015 1.302.007 1.953-.006 1.047-.022 1.475-.44 1.48-1.48.009-2.312.008-4.625 0-6.938zm1.602 33.433h.887v2.46c-.238.013-.455.034-.671.034-7.543.002-15.086-.007-22.628.009-1.728.004-3.072-.6-3.816-2.214A3.706 3.706 0 0 1 .95 48.78c-.022-6.13-.015-12.26-.014-18.391 0-.03.002-.06.005-.093a1.262 1.262 0 0 1 2.51-.22h.005V48.184c.001 1.497.308 1.799 1.828 1.799h22.223zm-1.612-7.536H5.974v-2.38h19.92v2.38zM5.97 45.063h14.914v2.385H5.97v-2.385zm12.433-7.613H5.973v-2.384h12.431v2.384zm5.052 9.983v-2.367h2.42v2.367h-2.42zm26.2-3.849c.2 2.623-2.008 5.056-4.852 5.156a4.941 4.941 0 0 1-5.098-4.761c-.199-2.688 1.885-4.985 4.703-5.187 2.775-.198 5.025 1.857 5.248 4.792zm-2.494.229c.032-1.373-1.117-2.557-2.483-2.56-1.334-.001-2.493 1.15-2.5 2.482a2.47 2.47 0 0 0 2.457 2.5c1.393.015 2.493-1.04 2.526-2.422zM10.956 18.777h12.43v2.434h-12.43v-2.434zm-4.974.017H8.39v2.437H5.982v-2.437zm39.95 5.913v-9.682H33.434v12.233a1.262 1.262 0 1 1-2.483-.033 7.174 7.174 0 0 1-.02-.468c-.002-4.156-.003-8.313-.001-12.469 0-1.384.389-1.777 1.745-1.778H46.69c1.33 0 1.723.392 1.725 1.728.003 3.348 0 6.695 0 10.042v.56a1.262 1.262 0 1 1-2.484-.133z"/></g></g></svg>